%TF.GenerationSoftware,KiCad,Pcbnew,9.0.3*%
%TF.CreationDate,2025-08-03T17:59:23+05:30*%
%TF.ProjectId,BatteryCharger_FuelGauge_Breakout_Board,42617474-6572-4794-9368-61726765725f,rev?*%
%TF.SameCoordinates,Original*%
%TF.FileFunction,Legend,Top*%
%TF.FilePolarity,Positive*%
%FSLAX46Y46*%
G04 Gerber Fmt 4.6, Leading zero omitted, Abs format (unit mm)*
G04 Created by KiCad (PCBNEW 9.0.3) date 2025-08-03 17:59:23*
%MOMM*%
%LPD*%
G01*
G04 APERTURE LIST*
%ADD10C,0.150000*%
%ADD11C,0.120000*%
G04 APERTURE END LIST*
D10*
X146867319Y-125642857D02*
X146391128Y-125976190D01*
X146867319Y-126214285D02*
X145867319Y-126214285D01*
X145867319Y-126214285D02*
X145867319Y-125833333D01*
X145867319Y-125833333D02*
X145914938Y-125738095D01*
X145914938Y-125738095D02*
X145962557Y-125690476D01*
X145962557Y-125690476D02*
X146057795Y-125642857D01*
X146057795Y-125642857D02*
X146200652Y-125642857D01*
X146200652Y-125642857D02*
X146295890Y-125690476D01*
X146295890Y-125690476D02*
X146343509Y-125738095D01*
X146343509Y-125738095D02*
X146391128Y-125833333D01*
X146391128Y-125833333D02*
X146391128Y-126214285D01*
X146867319Y-124690476D02*
X146867319Y-125261904D01*
X146867319Y-124976190D02*
X145867319Y-124976190D01*
X145867319Y-124976190D02*
X146010176Y-125071428D01*
X146010176Y-125071428D02*
X146105414Y-125166666D01*
X146105414Y-125166666D02*
X146153033Y-125261904D01*
X145867319Y-124357142D02*
X145867319Y-123738095D01*
X145867319Y-123738095D02*
X146248271Y-124071428D01*
X146248271Y-124071428D02*
X146248271Y-123928571D01*
X146248271Y-123928571D02*
X146295890Y-123833333D01*
X146295890Y-123833333D02*
X146343509Y-123785714D01*
X146343509Y-123785714D02*
X146438747Y-123738095D01*
X146438747Y-123738095D02*
X146676842Y-123738095D01*
X146676842Y-123738095D02*
X146772080Y-123785714D01*
X146772080Y-123785714D02*
X146819700Y-123833333D01*
X146819700Y-123833333D02*
X146867319Y-123928571D01*
X146867319Y-123928571D02*
X146867319Y-124214285D01*
X146867319Y-124214285D02*
X146819700Y-124309523D01*
X146819700Y-124309523D02*
X146772080Y-124357142D01*
X148826666Y-83004819D02*
X148826666Y-83719104D01*
X148826666Y-83719104D02*
X148779047Y-83861961D01*
X148779047Y-83861961D02*
X148683809Y-83957200D01*
X148683809Y-83957200D02*
X148540952Y-84004819D01*
X148540952Y-84004819D02*
X148445714Y-84004819D01*
X149826666Y-84004819D02*
X149255238Y-84004819D01*
X149540952Y-84004819D02*
X149540952Y-83004819D01*
X149540952Y-83004819D02*
X149445714Y-83147676D01*
X149445714Y-83147676D02*
X149350476Y-83242914D01*
X149350476Y-83242914D02*
X149255238Y-83290533D01*
X143358333Y-90004819D02*
X143025000Y-89528628D01*
X142786905Y-90004819D02*
X142786905Y-89004819D01*
X142786905Y-89004819D02*
X143167857Y-89004819D01*
X143167857Y-89004819D02*
X143263095Y-89052438D01*
X143263095Y-89052438D02*
X143310714Y-89100057D01*
X143310714Y-89100057D02*
X143358333Y-89195295D01*
X143358333Y-89195295D02*
X143358333Y-89338152D01*
X143358333Y-89338152D02*
X143310714Y-89433390D01*
X143310714Y-89433390D02*
X143263095Y-89481009D01*
X143263095Y-89481009D02*
X143167857Y-89528628D01*
X143167857Y-89528628D02*
X142786905Y-89528628D01*
X144310714Y-90004819D02*
X143739286Y-90004819D01*
X144025000Y-90004819D02*
X144025000Y-89004819D01*
X144025000Y-89004819D02*
X143929762Y-89147676D01*
X143929762Y-89147676D02*
X143834524Y-89242914D01*
X143834524Y-89242914D02*
X143739286Y-89290533D01*
X148666666Y-87454819D02*
X148666666Y-88169104D01*
X148666666Y-88169104D02*
X148619047Y-88311961D01*
X148619047Y-88311961D02*
X148523809Y-88407200D01*
X148523809Y-88407200D02*
X148380952Y-88454819D01*
X148380952Y-88454819D02*
X148285714Y-88454819D01*
X149142857Y-88454819D02*
X149142857Y-87454819D01*
X149142857Y-87454819D02*
X149523809Y-87454819D01*
X149523809Y-87454819D02*
X149619047Y-87502438D01*
X149619047Y-87502438D02*
X149666666Y-87550057D01*
X149666666Y-87550057D02*
X149714285Y-87645295D01*
X149714285Y-87645295D02*
X149714285Y-87788152D01*
X149714285Y-87788152D02*
X149666666Y-87883390D01*
X149666666Y-87883390D02*
X149619047Y-87931009D01*
X149619047Y-87931009D02*
X149523809Y-87978628D01*
X149523809Y-87978628D02*
X149142857Y-87978628D01*
X150095238Y-87550057D02*
X150142857Y-87502438D01*
X150142857Y-87502438D02*
X150238095Y-87454819D01*
X150238095Y-87454819D02*
X150476190Y-87454819D01*
X150476190Y-87454819D02*
X150571428Y-87502438D01*
X150571428Y-87502438D02*
X150619047Y-87550057D01*
X150619047Y-87550057D02*
X150666666Y-87645295D01*
X150666666Y-87645295D02*
X150666666Y-87740533D01*
X150666666Y-87740533D02*
X150619047Y-87883390D01*
X150619047Y-87883390D02*
X150047619Y-88454819D01*
X150047619Y-88454819D02*
X150666666Y-88454819D01*
X149538095Y-132454819D02*
X149538095Y-131454819D01*
X149538095Y-131931009D02*
X150109523Y-131931009D01*
X150109523Y-132454819D02*
X150109523Y-131454819D01*
X151014285Y-131788152D02*
X151014285Y-132454819D01*
X150776190Y-131407200D02*
X150538095Y-132121485D01*
X150538095Y-132121485D02*
X151157142Y-132121485D01*
X131883333Y-93954819D02*
X131550000Y-93478628D01*
X131311905Y-93954819D02*
X131311905Y-92954819D01*
X131311905Y-92954819D02*
X131692857Y-92954819D01*
X131692857Y-92954819D02*
X131788095Y-93002438D01*
X131788095Y-93002438D02*
X131835714Y-93050057D01*
X131835714Y-93050057D02*
X131883333Y-93145295D01*
X131883333Y-93145295D02*
X131883333Y-93288152D01*
X131883333Y-93288152D02*
X131835714Y-93383390D01*
X131835714Y-93383390D02*
X131788095Y-93431009D01*
X131788095Y-93431009D02*
X131692857Y-93478628D01*
X131692857Y-93478628D02*
X131311905Y-93478628D01*
X132740476Y-93288152D02*
X132740476Y-93954819D01*
X132502381Y-92907200D02*
X132264286Y-93621485D01*
X132264286Y-93621485D02*
X132883333Y-93621485D01*
X137970833Y-119109580D02*
X137923214Y-119157200D01*
X137923214Y-119157200D02*
X137780357Y-119204819D01*
X137780357Y-119204819D02*
X137685119Y-119204819D01*
X137685119Y-119204819D02*
X137542262Y-119157200D01*
X137542262Y-119157200D02*
X137447024Y-119061961D01*
X137447024Y-119061961D02*
X137399405Y-118966723D01*
X137399405Y-118966723D02*
X137351786Y-118776247D01*
X137351786Y-118776247D02*
X137351786Y-118633390D01*
X137351786Y-118633390D02*
X137399405Y-118442914D01*
X137399405Y-118442914D02*
X137447024Y-118347676D01*
X137447024Y-118347676D02*
X137542262Y-118252438D01*
X137542262Y-118252438D02*
X137685119Y-118204819D01*
X137685119Y-118204819D02*
X137780357Y-118204819D01*
X137780357Y-118204819D02*
X137923214Y-118252438D01*
X137923214Y-118252438D02*
X137970833Y-118300057D01*
X138304167Y-118204819D02*
X138923214Y-118204819D01*
X138923214Y-118204819D02*
X138589881Y-118585771D01*
X138589881Y-118585771D02*
X138732738Y-118585771D01*
X138732738Y-118585771D02*
X138827976Y-118633390D01*
X138827976Y-118633390D02*
X138875595Y-118681009D01*
X138875595Y-118681009D02*
X138923214Y-118776247D01*
X138923214Y-118776247D02*
X138923214Y-119014342D01*
X138923214Y-119014342D02*
X138875595Y-119109580D01*
X138875595Y-119109580D02*
X138827976Y-119157200D01*
X138827976Y-119157200D02*
X138732738Y-119204819D01*
X138732738Y-119204819D02*
X138447024Y-119204819D01*
X138447024Y-119204819D02*
X138351786Y-119157200D01*
X138351786Y-119157200D02*
X138304167Y-119109580D01*
X149454819Y-125642857D02*
X148978628Y-125976190D01*
X149454819Y-126214285D02*
X148454819Y-126214285D01*
X148454819Y-126214285D02*
X148454819Y-125833333D01*
X148454819Y-125833333D02*
X148502438Y-125738095D01*
X148502438Y-125738095D02*
X148550057Y-125690476D01*
X148550057Y-125690476D02*
X148645295Y-125642857D01*
X148645295Y-125642857D02*
X148788152Y-125642857D01*
X148788152Y-125642857D02*
X148883390Y-125690476D01*
X148883390Y-125690476D02*
X148931009Y-125738095D01*
X148931009Y-125738095D02*
X148978628Y-125833333D01*
X148978628Y-125833333D02*
X148978628Y-126214285D01*
X149454819Y-124690476D02*
X149454819Y-125261904D01*
X149454819Y-124976190D02*
X148454819Y-124976190D01*
X148454819Y-124976190D02*
X148597676Y-125071428D01*
X148597676Y-125071428D02*
X148692914Y-125166666D01*
X148692914Y-125166666D02*
X148740533Y-125261904D01*
X148788152Y-123833333D02*
X149454819Y-123833333D01*
X148407200Y-124071428D02*
X149121485Y-124309523D01*
X149121485Y-124309523D02*
X149121485Y-123690476D01*
X145059580Y-96316666D02*
X145107200Y-96364285D01*
X145107200Y-96364285D02*
X145154819Y-96507142D01*
X145154819Y-96507142D02*
X145154819Y-96602380D01*
X145154819Y-96602380D02*
X145107200Y-96745237D01*
X145107200Y-96745237D02*
X145011961Y-96840475D01*
X145011961Y-96840475D02*
X144916723Y-96888094D01*
X144916723Y-96888094D02*
X144726247Y-96935713D01*
X144726247Y-96935713D02*
X144583390Y-96935713D01*
X144583390Y-96935713D02*
X144392914Y-96888094D01*
X144392914Y-96888094D02*
X144297676Y-96840475D01*
X144297676Y-96840475D02*
X144202438Y-96745237D01*
X144202438Y-96745237D02*
X144154819Y-96602380D01*
X144154819Y-96602380D02*
X144154819Y-96507142D01*
X144154819Y-96507142D02*
X144202438Y-96364285D01*
X144202438Y-96364285D02*
X144250057Y-96316666D01*
X145154819Y-95364285D02*
X145154819Y-95935713D01*
X145154819Y-95649999D02*
X144154819Y-95649999D01*
X144154819Y-95649999D02*
X144297676Y-95745237D01*
X144297676Y-95745237D02*
X144392914Y-95840475D01*
X144392914Y-95840475D02*
X144440533Y-95935713D01*
X131983333Y-101604819D02*
X131650000Y-101128628D01*
X131411905Y-101604819D02*
X131411905Y-100604819D01*
X131411905Y-100604819D02*
X131792857Y-100604819D01*
X131792857Y-100604819D02*
X131888095Y-100652438D01*
X131888095Y-100652438D02*
X131935714Y-100700057D01*
X131935714Y-100700057D02*
X131983333Y-100795295D01*
X131983333Y-100795295D02*
X131983333Y-100938152D01*
X131983333Y-100938152D02*
X131935714Y-101033390D01*
X131935714Y-101033390D02*
X131888095Y-101081009D01*
X131888095Y-101081009D02*
X131792857Y-101128628D01*
X131792857Y-101128628D02*
X131411905Y-101128628D01*
X132888095Y-100604819D02*
X132411905Y-100604819D01*
X132411905Y-100604819D02*
X132364286Y-101081009D01*
X132364286Y-101081009D02*
X132411905Y-101033390D01*
X132411905Y-101033390D02*
X132507143Y-100985771D01*
X132507143Y-100985771D02*
X132745238Y-100985771D01*
X132745238Y-100985771D02*
X132840476Y-101033390D01*
X132840476Y-101033390D02*
X132888095Y-101081009D01*
X132888095Y-101081009D02*
X132935714Y-101176247D01*
X132935714Y-101176247D02*
X132935714Y-101414342D01*
X132935714Y-101414342D02*
X132888095Y-101509580D01*
X132888095Y-101509580D02*
X132840476Y-101557200D01*
X132840476Y-101557200D02*
X132745238Y-101604819D01*
X132745238Y-101604819D02*
X132507143Y-101604819D01*
X132507143Y-101604819D02*
X132411905Y-101557200D01*
X132411905Y-101557200D02*
X132364286Y-101509580D01*
X132666666Y-128954819D02*
X132666666Y-129669104D01*
X132666666Y-129669104D02*
X132619047Y-129811961D01*
X132619047Y-129811961D02*
X132523809Y-129907200D01*
X132523809Y-129907200D02*
X132380952Y-129954819D01*
X132380952Y-129954819D02*
X132285714Y-129954819D01*
X133047619Y-128954819D02*
X133666666Y-128954819D01*
X133666666Y-128954819D02*
X133333333Y-129335771D01*
X133333333Y-129335771D02*
X133476190Y-129335771D01*
X133476190Y-129335771D02*
X133571428Y-129383390D01*
X133571428Y-129383390D02*
X133619047Y-129431009D01*
X133619047Y-129431009D02*
X133666666Y-129526247D01*
X133666666Y-129526247D02*
X133666666Y-129764342D01*
X133666666Y-129764342D02*
X133619047Y-129859580D01*
X133619047Y-129859580D02*
X133571428Y-129907200D01*
X133571428Y-129907200D02*
X133476190Y-129954819D01*
X133476190Y-129954819D02*
X133190476Y-129954819D01*
X133190476Y-129954819D02*
X133095238Y-129907200D01*
X133095238Y-129907200D02*
X133047619Y-129859580D01*
X153607142Y-115954819D02*
X153273809Y-115478628D01*
X153035714Y-115954819D02*
X153035714Y-114954819D01*
X153035714Y-114954819D02*
X153416666Y-114954819D01*
X153416666Y-114954819D02*
X153511904Y-115002438D01*
X153511904Y-115002438D02*
X153559523Y-115050057D01*
X153559523Y-115050057D02*
X153607142Y-115145295D01*
X153607142Y-115145295D02*
X153607142Y-115288152D01*
X153607142Y-115288152D02*
X153559523Y-115383390D01*
X153559523Y-115383390D02*
X153511904Y-115431009D01*
X153511904Y-115431009D02*
X153416666Y-115478628D01*
X153416666Y-115478628D02*
X153035714Y-115478628D01*
X154559523Y-115954819D02*
X153988095Y-115954819D01*
X154273809Y-115954819D02*
X154273809Y-114954819D01*
X154273809Y-114954819D02*
X154178571Y-115097676D01*
X154178571Y-115097676D02*
X154083333Y-115192914D01*
X154083333Y-115192914D02*
X153988095Y-115240533D01*
X155511904Y-115954819D02*
X154940476Y-115954819D01*
X155226190Y-115954819D02*
X155226190Y-114954819D01*
X155226190Y-114954819D02*
X155130952Y-115097676D01*
X155130952Y-115097676D02*
X155035714Y-115192914D01*
X155035714Y-115192914D02*
X154940476Y-115240533D01*
X130238095Y-132454819D02*
X130238095Y-131454819D01*
X130238095Y-131931009D02*
X130809523Y-131931009D01*
X130809523Y-132454819D02*
X130809523Y-131454819D01*
X131190476Y-131454819D02*
X131809523Y-131454819D01*
X131809523Y-131454819D02*
X131476190Y-131835771D01*
X131476190Y-131835771D02*
X131619047Y-131835771D01*
X131619047Y-131835771D02*
X131714285Y-131883390D01*
X131714285Y-131883390D02*
X131761904Y-131931009D01*
X131761904Y-131931009D02*
X131809523Y-132026247D01*
X131809523Y-132026247D02*
X131809523Y-132264342D01*
X131809523Y-132264342D02*
X131761904Y-132359580D01*
X131761904Y-132359580D02*
X131714285Y-132407200D01*
X131714285Y-132407200D02*
X131619047Y-132454819D01*
X131619047Y-132454819D02*
X131333333Y-132454819D01*
X131333333Y-132454819D02*
X131238095Y-132407200D01*
X131238095Y-132407200D02*
X131190476Y-132359580D01*
X143933333Y-115654819D02*
X143600000Y-115178628D01*
X143361905Y-115654819D02*
X143361905Y-114654819D01*
X143361905Y-114654819D02*
X143742857Y-114654819D01*
X143742857Y-114654819D02*
X143838095Y-114702438D01*
X143838095Y-114702438D02*
X143885714Y-114750057D01*
X143885714Y-114750057D02*
X143933333Y-114845295D01*
X143933333Y-114845295D02*
X143933333Y-114988152D01*
X143933333Y-114988152D02*
X143885714Y-115083390D01*
X143885714Y-115083390D02*
X143838095Y-115131009D01*
X143838095Y-115131009D02*
X143742857Y-115178628D01*
X143742857Y-115178628D02*
X143361905Y-115178628D01*
X144790476Y-114654819D02*
X144600000Y-114654819D01*
X144600000Y-114654819D02*
X144504762Y-114702438D01*
X144504762Y-114702438D02*
X144457143Y-114750057D01*
X144457143Y-114750057D02*
X144361905Y-114892914D01*
X144361905Y-114892914D02*
X144314286Y-115083390D01*
X144314286Y-115083390D02*
X144314286Y-115464342D01*
X144314286Y-115464342D02*
X144361905Y-115559580D01*
X144361905Y-115559580D02*
X144409524Y-115607200D01*
X144409524Y-115607200D02*
X144504762Y-115654819D01*
X144504762Y-115654819D02*
X144695238Y-115654819D01*
X144695238Y-115654819D02*
X144790476Y-115607200D01*
X144790476Y-115607200D02*
X144838095Y-115559580D01*
X144838095Y-115559580D02*
X144885714Y-115464342D01*
X144885714Y-115464342D02*
X144885714Y-115226247D01*
X144885714Y-115226247D02*
X144838095Y-115131009D01*
X144838095Y-115131009D02*
X144790476Y-115083390D01*
X144790476Y-115083390D02*
X144695238Y-115035771D01*
X144695238Y-115035771D02*
X144504762Y-115035771D01*
X144504762Y-115035771D02*
X144409524Y-115083390D01*
X144409524Y-115083390D02*
X144361905Y-115131009D01*
X144361905Y-115131009D02*
X144314286Y-115226247D01*
X131562319Y-97983333D02*
X132276604Y-97983333D01*
X132276604Y-97983333D02*
X132419461Y-98030952D01*
X132419461Y-98030952D02*
X132514700Y-98126190D01*
X132514700Y-98126190D02*
X132562319Y-98269047D01*
X132562319Y-98269047D02*
X132562319Y-98364285D01*
X132562319Y-97507142D02*
X131562319Y-97507142D01*
X131562319Y-97507142D02*
X131562319Y-97126190D01*
X131562319Y-97126190D02*
X131609938Y-97030952D01*
X131609938Y-97030952D02*
X131657557Y-96983333D01*
X131657557Y-96983333D02*
X131752795Y-96935714D01*
X131752795Y-96935714D02*
X131895652Y-96935714D01*
X131895652Y-96935714D02*
X131990890Y-96983333D01*
X131990890Y-96983333D02*
X132038509Y-97030952D01*
X132038509Y-97030952D02*
X132086128Y-97126190D01*
X132086128Y-97126190D02*
X132086128Y-97507142D01*
X132562319Y-95983333D02*
X132562319Y-96554761D01*
X132562319Y-96269047D02*
X131562319Y-96269047D01*
X131562319Y-96269047D02*
X131705176Y-96364285D01*
X131705176Y-96364285D02*
X131800414Y-96459523D01*
X131800414Y-96459523D02*
X131848033Y-96554761D01*
X129488095Y-81704819D02*
X129488095Y-80704819D01*
X129488095Y-81181009D02*
X130059523Y-81181009D01*
X130059523Y-81704819D02*
X130059523Y-80704819D01*
X131059523Y-81704819D02*
X130488095Y-81704819D01*
X130773809Y-81704819D02*
X130773809Y-80704819D01*
X130773809Y-80704819D02*
X130678571Y-80847676D01*
X130678571Y-80847676D02*
X130583333Y-80942914D01*
X130583333Y-80942914D02*
X130488095Y-80990533D01*
X144511905Y-122954819D02*
X144511905Y-121954819D01*
X144511905Y-121954819D02*
X144750000Y-121954819D01*
X144750000Y-121954819D02*
X144892857Y-122002438D01*
X144892857Y-122002438D02*
X144988095Y-122097676D01*
X144988095Y-122097676D02*
X145035714Y-122192914D01*
X145035714Y-122192914D02*
X145083333Y-122383390D01*
X145083333Y-122383390D02*
X145083333Y-122526247D01*
X145083333Y-122526247D02*
X145035714Y-122716723D01*
X145035714Y-122716723D02*
X144988095Y-122811961D01*
X144988095Y-122811961D02*
X144892857Y-122907200D01*
X144892857Y-122907200D02*
X144750000Y-122954819D01*
X144750000Y-122954819D02*
X144511905Y-122954819D01*
X146035714Y-122954819D02*
X145464286Y-122954819D01*
X145750000Y-122954819D02*
X145750000Y-121954819D01*
X145750000Y-121954819D02*
X145654762Y-122097676D01*
X145654762Y-122097676D02*
X145559524Y-122192914D01*
X145559524Y-122192914D02*
X145464286Y-122240533D01*
X153607142Y-113954819D02*
X153273809Y-113478628D01*
X153035714Y-113954819D02*
X153035714Y-112954819D01*
X153035714Y-112954819D02*
X153416666Y-112954819D01*
X153416666Y-112954819D02*
X153511904Y-113002438D01*
X153511904Y-113002438D02*
X153559523Y-113050057D01*
X153559523Y-113050057D02*
X153607142Y-113145295D01*
X153607142Y-113145295D02*
X153607142Y-113288152D01*
X153607142Y-113288152D02*
X153559523Y-113383390D01*
X153559523Y-113383390D02*
X153511904Y-113431009D01*
X153511904Y-113431009D02*
X153416666Y-113478628D01*
X153416666Y-113478628D02*
X153035714Y-113478628D01*
X154559523Y-113954819D02*
X153988095Y-113954819D01*
X154273809Y-113954819D02*
X154273809Y-112954819D01*
X154273809Y-112954819D02*
X154178571Y-113097676D01*
X154178571Y-113097676D02*
X154083333Y-113192914D01*
X154083333Y-113192914D02*
X153988095Y-113240533D01*
X155178571Y-112954819D02*
X155273809Y-112954819D01*
X155273809Y-112954819D02*
X155369047Y-113002438D01*
X155369047Y-113002438D02*
X155416666Y-113050057D01*
X155416666Y-113050057D02*
X155464285Y-113145295D01*
X155464285Y-113145295D02*
X155511904Y-113335771D01*
X155511904Y-113335771D02*
X155511904Y-113573866D01*
X155511904Y-113573866D02*
X155464285Y-113764342D01*
X155464285Y-113764342D02*
X155416666Y-113859580D01*
X155416666Y-113859580D02*
X155369047Y-113907200D01*
X155369047Y-113907200D02*
X155273809Y-113954819D01*
X155273809Y-113954819D02*
X155178571Y-113954819D01*
X155178571Y-113954819D02*
X155083333Y-113907200D01*
X155083333Y-113907200D02*
X155035714Y-113859580D01*
X155035714Y-113859580D02*
X154988095Y-113764342D01*
X154988095Y-113764342D02*
X154940476Y-113573866D01*
X154940476Y-113573866D02*
X154940476Y-113335771D01*
X154940476Y-113335771D02*
X154988095Y-113145295D01*
X154988095Y-113145295D02*
X155035714Y-113050057D01*
X155035714Y-113050057D02*
X155083333Y-113002438D01*
X155083333Y-113002438D02*
X155178571Y-112954819D01*
X153416666Y-110624819D02*
X153416666Y-111339104D01*
X153416666Y-111339104D02*
X153369047Y-111481961D01*
X153369047Y-111481961D02*
X153273809Y-111577200D01*
X153273809Y-111577200D02*
X153130952Y-111624819D01*
X153130952Y-111624819D02*
X153035714Y-111624819D01*
X154321428Y-110958152D02*
X154321428Y-111624819D01*
X154083333Y-110577200D02*
X153845238Y-111291485D01*
X153845238Y-111291485D02*
X154464285Y-111291485D01*
X138438095Y-95214819D02*
X138438095Y-96024342D01*
X138438095Y-96024342D02*
X138485714Y-96119580D01*
X138485714Y-96119580D02*
X138533333Y-96167200D01*
X138533333Y-96167200D02*
X138628571Y-96214819D01*
X138628571Y-96214819D02*
X138819047Y-96214819D01*
X138819047Y-96214819D02*
X138914285Y-96167200D01*
X138914285Y-96167200D02*
X138961904Y-96119580D01*
X138961904Y-96119580D02*
X139009523Y-96024342D01*
X139009523Y-96024342D02*
X139009523Y-95214819D01*
X140009523Y-96214819D02*
X139438095Y-96214819D01*
X139723809Y-96214819D02*
X139723809Y-95214819D01*
X139723809Y-95214819D02*
X139628571Y-95357676D01*
X139628571Y-95357676D02*
X139533333Y-95452914D01*
X139533333Y-95452914D02*
X139438095Y-95500533D01*
X141233333Y-118954819D02*
X140900000Y-118478628D01*
X140661905Y-118954819D02*
X140661905Y-117954819D01*
X140661905Y-117954819D02*
X141042857Y-117954819D01*
X141042857Y-117954819D02*
X141138095Y-118002438D01*
X141138095Y-118002438D02*
X141185714Y-118050057D01*
X141185714Y-118050057D02*
X141233333Y-118145295D01*
X141233333Y-118145295D02*
X141233333Y-118288152D01*
X141233333Y-118288152D02*
X141185714Y-118383390D01*
X141185714Y-118383390D02*
X141138095Y-118431009D01*
X141138095Y-118431009D02*
X141042857Y-118478628D01*
X141042857Y-118478628D02*
X140661905Y-118478628D01*
X141566667Y-117954819D02*
X142233333Y-117954819D01*
X142233333Y-117954819D02*
X141804762Y-118954819D01*
X136583333Y-117109580D02*
X136535714Y-117157200D01*
X136535714Y-117157200D02*
X136392857Y-117204819D01*
X136392857Y-117204819D02*
X136297619Y-117204819D01*
X136297619Y-117204819D02*
X136154762Y-117157200D01*
X136154762Y-117157200D02*
X136059524Y-117061961D01*
X136059524Y-117061961D02*
X136011905Y-116966723D01*
X136011905Y-116966723D02*
X135964286Y-116776247D01*
X135964286Y-116776247D02*
X135964286Y-116633390D01*
X135964286Y-116633390D02*
X136011905Y-116442914D01*
X136011905Y-116442914D02*
X136059524Y-116347676D01*
X136059524Y-116347676D02*
X136154762Y-116252438D01*
X136154762Y-116252438D02*
X136297619Y-116204819D01*
X136297619Y-116204819D02*
X136392857Y-116204819D01*
X136392857Y-116204819D02*
X136535714Y-116252438D01*
X136535714Y-116252438D02*
X136583333Y-116300057D01*
X137440476Y-116538152D02*
X137440476Y-117204819D01*
X137202381Y-116157200D02*
X136964286Y-116871485D01*
X136964286Y-116871485D02*
X137583333Y-116871485D01*
X144833333Y-109454819D02*
X144500000Y-108978628D01*
X144261905Y-109454819D02*
X144261905Y-108454819D01*
X144261905Y-108454819D02*
X144642857Y-108454819D01*
X144642857Y-108454819D02*
X144738095Y-108502438D01*
X144738095Y-108502438D02*
X144785714Y-108550057D01*
X144785714Y-108550057D02*
X144833333Y-108645295D01*
X144833333Y-108645295D02*
X144833333Y-108788152D01*
X144833333Y-108788152D02*
X144785714Y-108883390D01*
X144785714Y-108883390D02*
X144738095Y-108931009D01*
X144738095Y-108931009D02*
X144642857Y-108978628D01*
X144642857Y-108978628D02*
X144261905Y-108978628D01*
X145404762Y-108883390D02*
X145309524Y-108835771D01*
X145309524Y-108835771D02*
X145261905Y-108788152D01*
X145261905Y-108788152D02*
X145214286Y-108692914D01*
X145214286Y-108692914D02*
X145214286Y-108645295D01*
X145214286Y-108645295D02*
X145261905Y-108550057D01*
X145261905Y-108550057D02*
X145309524Y-108502438D01*
X145309524Y-108502438D02*
X145404762Y-108454819D01*
X145404762Y-108454819D02*
X145595238Y-108454819D01*
X145595238Y-108454819D02*
X145690476Y-108502438D01*
X145690476Y-108502438D02*
X145738095Y-108550057D01*
X145738095Y-108550057D02*
X145785714Y-108645295D01*
X145785714Y-108645295D02*
X145785714Y-108692914D01*
X145785714Y-108692914D02*
X145738095Y-108788152D01*
X145738095Y-108788152D02*
X145690476Y-108835771D01*
X145690476Y-108835771D02*
X145595238Y-108883390D01*
X145595238Y-108883390D02*
X145404762Y-108883390D01*
X145404762Y-108883390D02*
X145309524Y-108931009D01*
X145309524Y-108931009D02*
X145261905Y-108978628D01*
X145261905Y-108978628D02*
X145214286Y-109073866D01*
X145214286Y-109073866D02*
X145214286Y-109264342D01*
X145214286Y-109264342D02*
X145261905Y-109359580D01*
X145261905Y-109359580D02*
X145309524Y-109407200D01*
X145309524Y-109407200D02*
X145404762Y-109454819D01*
X145404762Y-109454819D02*
X145595238Y-109454819D01*
X145595238Y-109454819D02*
X145690476Y-109407200D01*
X145690476Y-109407200D02*
X145738095Y-109359580D01*
X145738095Y-109359580D02*
X145785714Y-109264342D01*
X145785714Y-109264342D02*
X145785714Y-109073866D01*
X145785714Y-109073866D02*
X145738095Y-108978628D01*
X145738095Y-108978628D02*
X145690476Y-108931009D01*
X145690476Y-108931009D02*
X145595238Y-108883390D01*
X146333333Y-113954819D02*
X146000000Y-113478628D01*
X145761905Y-113954819D02*
X145761905Y-112954819D01*
X145761905Y-112954819D02*
X146142857Y-112954819D01*
X146142857Y-112954819D02*
X146238095Y-113002438D01*
X146238095Y-113002438D02*
X146285714Y-113050057D01*
X146285714Y-113050057D02*
X146333333Y-113145295D01*
X146333333Y-113145295D02*
X146333333Y-113288152D01*
X146333333Y-113288152D02*
X146285714Y-113383390D01*
X146285714Y-113383390D02*
X146238095Y-113431009D01*
X146238095Y-113431009D02*
X146142857Y-113478628D01*
X146142857Y-113478628D02*
X145761905Y-113478628D01*
X146809524Y-113954819D02*
X147000000Y-113954819D01*
X147000000Y-113954819D02*
X147095238Y-113907200D01*
X147095238Y-113907200D02*
X147142857Y-113859580D01*
X147142857Y-113859580D02*
X147238095Y-113716723D01*
X147238095Y-113716723D02*
X147285714Y-113526247D01*
X147285714Y-113526247D02*
X147285714Y-113145295D01*
X147285714Y-113145295D02*
X147238095Y-113050057D01*
X147238095Y-113050057D02*
X147190476Y-113002438D01*
X147190476Y-113002438D02*
X147095238Y-112954819D01*
X147095238Y-112954819D02*
X146904762Y-112954819D01*
X146904762Y-112954819D02*
X146809524Y-113002438D01*
X146809524Y-113002438D02*
X146761905Y-113050057D01*
X146761905Y-113050057D02*
X146714286Y-113145295D01*
X146714286Y-113145295D02*
X146714286Y-113383390D01*
X146714286Y-113383390D02*
X146761905Y-113478628D01*
X146761905Y-113478628D02*
X146809524Y-113526247D01*
X146809524Y-113526247D02*
X146904762Y-113573866D01*
X146904762Y-113573866D02*
X147095238Y-113573866D01*
X147095238Y-113573866D02*
X147190476Y-113526247D01*
X147190476Y-113526247D02*
X147238095Y-113478628D01*
X147238095Y-113478628D02*
X147285714Y-113383390D01*
X142634819Y-107283333D02*
X143349104Y-107283333D01*
X143349104Y-107283333D02*
X143491961Y-107330952D01*
X143491961Y-107330952D02*
X143587200Y-107426190D01*
X143587200Y-107426190D02*
X143634819Y-107569047D01*
X143634819Y-107569047D02*
X143634819Y-107664285D01*
X142730057Y-106854761D02*
X142682438Y-106807142D01*
X142682438Y-106807142D02*
X142634819Y-106711904D01*
X142634819Y-106711904D02*
X142634819Y-106473809D01*
X142634819Y-106473809D02*
X142682438Y-106378571D01*
X142682438Y-106378571D02*
X142730057Y-106330952D01*
X142730057Y-106330952D02*
X142825295Y-106283333D01*
X142825295Y-106283333D02*
X142920533Y-106283333D01*
X142920533Y-106283333D02*
X143063390Y-106330952D01*
X143063390Y-106330952D02*
X143634819Y-106902380D01*
X143634819Y-106902380D02*
X143634819Y-106283333D01*
X136504819Y-114761904D02*
X137314342Y-114761904D01*
X137314342Y-114761904D02*
X137409580Y-114714285D01*
X137409580Y-114714285D02*
X137457200Y-114666666D01*
X137457200Y-114666666D02*
X137504819Y-114571428D01*
X137504819Y-114571428D02*
X137504819Y-114380952D01*
X137504819Y-114380952D02*
X137457200Y-114285714D01*
X137457200Y-114285714D02*
X137409580Y-114238095D01*
X137409580Y-114238095D02*
X137314342Y-114190476D01*
X137314342Y-114190476D02*
X136504819Y-114190476D01*
X136600057Y-113761904D02*
X136552438Y-113714285D01*
X136552438Y-113714285D02*
X136504819Y-113619047D01*
X136504819Y-113619047D02*
X136504819Y-113380952D01*
X136504819Y-113380952D02*
X136552438Y-113285714D01*
X136552438Y-113285714D02*
X136600057Y-113238095D01*
X136600057Y-113238095D02*
X136695295Y-113190476D01*
X136695295Y-113190476D02*
X136790533Y-113190476D01*
X136790533Y-113190476D02*
X136933390Y-113238095D01*
X136933390Y-113238095D02*
X137504819Y-113809523D01*
X137504819Y-113809523D02*
X137504819Y-113190476D01*
X143358333Y-94004819D02*
X143025000Y-93528628D01*
X142786905Y-94004819D02*
X142786905Y-93004819D01*
X142786905Y-93004819D02*
X143167857Y-93004819D01*
X143167857Y-93004819D02*
X143263095Y-93052438D01*
X143263095Y-93052438D02*
X143310714Y-93100057D01*
X143310714Y-93100057D02*
X143358333Y-93195295D01*
X143358333Y-93195295D02*
X143358333Y-93338152D01*
X143358333Y-93338152D02*
X143310714Y-93433390D01*
X143310714Y-93433390D02*
X143263095Y-93481009D01*
X143263095Y-93481009D02*
X143167857Y-93528628D01*
X143167857Y-93528628D02*
X142786905Y-93528628D01*
X143739286Y-93100057D02*
X143786905Y-93052438D01*
X143786905Y-93052438D02*
X143882143Y-93004819D01*
X143882143Y-93004819D02*
X144120238Y-93004819D01*
X144120238Y-93004819D02*
X144215476Y-93052438D01*
X144215476Y-93052438D02*
X144263095Y-93100057D01*
X144263095Y-93100057D02*
X144310714Y-93195295D01*
X144310714Y-93195295D02*
X144310714Y-93290533D01*
X144310714Y-93290533D02*
X144263095Y-93433390D01*
X144263095Y-93433390D02*
X143691667Y-94004819D01*
X143691667Y-94004819D02*
X144310714Y-94004819D01*
X139720833Y-111109580D02*
X139673214Y-111157200D01*
X139673214Y-111157200D02*
X139530357Y-111204819D01*
X139530357Y-111204819D02*
X139435119Y-111204819D01*
X139435119Y-111204819D02*
X139292262Y-111157200D01*
X139292262Y-111157200D02*
X139197024Y-111061961D01*
X139197024Y-111061961D02*
X139149405Y-110966723D01*
X139149405Y-110966723D02*
X139101786Y-110776247D01*
X139101786Y-110776247D02*
X139101786Y-110633390D01*
X139101786Y-110633390D02*
X139149405Y-110442914D01*
X139149405Y-110442914D02*
X139197024Y-110347676D01*
X139197024Y-110347676D02*
X139292262Y-110252438D01*
X139292262Y-110252438D02*
X139435119Y-110204819D01*
X139435119Y-110204819D02*
X139530357Y-110204819D01*
X139530357Y-110204819D02*
X139673214Y-110252438D01*
X139673214Y-110252438D02*
X139720833Y-110300057D01*
X140625595Y-110204819D02*
X140149405Y-110204819D01*
X140149405Y-110204819D02*
X140101786Y-110681009D01*
X140101786Y-110681009D02*
X140149405Y-110633390D01*
X140149405Y-110633390D02*
X140244643Y-110585771D01*
X140244643Y-110585771D02*
X140482738Y-110585771D01*
X140482738Y-110585771D02*
X140577976Y-110633390D01*
X140577976Y-110633390D02*
X140625595Y-110681009D01*
X140625595Y-110681009D02*
X140673214Y-110776247D01*
X140673214Y-110776247D02*
X140673214Y-111014342D01*
X140673214Y-111014342D02*
X140625595Y-111109580D01*
X140625595Y-111109580D02*
X140577976Y-111157200D01*
X140577976Y-111157200D02*
X140482738Y-111204819D01*
X140482738Y-111204819D02*
X140244643Y-111204819D01*
X140244643Y-111204819D02*
X140149405Y-111157200D01*
X140149405Y-111157200D02*
X140101786Y-111109580D01*
X138883333Y-102839580D02*
X138835714Y-102887200D01*
X138835714Y-102887200D02*
X138692857Y-102934819D01*
X138692857Y-102934819D02*
X138597619Y-102934819D01*
X138597619Y-102934819D02*
X138454762Y-102887200D01*
X138454762Y-102887200D02*
X138359524Y-102791961D01*
X138359524Y-102791961D02*
X138311905Y-102696723D01*
X138311905Y-102696723D02*
X138264286Y-102506247D01*
X138264286Y-102506247D02*
X138264286Y-102363390D01*
X138264286Y-102363390D02*
X138311905Y-102172914D01*
X138311905Y-102172914D02*
X138359524Y-102077676D01*
X138359524Y-102077676D02*
X138454762Y-101982438D01*
X138454762Y-101982438D02*
X138597619Y-101934819D01*
X138597619Y-101934819D02*
X138692857Y-101934819D01*
X138692857Y-101934819D02*
X138835714Y-101982438D01*
X138835714Y-101982438D02*
X138883333Y-102030057D01*
X139264286Y-102030057D02*
X139311905Y-101982438D01*
X139311905Y-101982438D02*
X139407143Y-101934819D01*
X139407143Y-101934819D02*
X139645238Y-101934819D01*
X139645238Y-101934819D02*
X139740476Y-101982438D01*
X139740476Y-101982438D02*
X139788095Y-102030057D01*
X139788095Y-102030057D02*
X139835714Y-102125295D01*
X139835714Y-102125295D02*
X139835714Y-102220533D01*
X139835714Y-102220533D02*
X139788095Y-102363390D01*
X139788095Y-102363390D02*
X139216667Y-102934819D01*
X139216667Y-102934819D02*
X139835714Y-102934819D01*
X150038095Y-81254819D02*
X150038095Y-80254819D01*
X150038095Y-80731009D02*
X150609523Y-80731009D01*
X150609523Y-81254819D02*
X150609523Y-80254819D01*
X151038095Y-80350057D02*
X151085714Y-80302438D01*
X151085714Y-80302438D02*
X151180952Y-80254819D01*
X151180952Y-80254819D02*
X151419047Y-80254819D01*
X151419047Y-80254819D02*
X151514285Y-80302438D01*
X151514285Y-80302438D02*
X151561904Y-80350057D01*
X151561904Y-80350057D02*
X151609523Y-80445295D01*
X151609523Y-80445295D02*
X151609523Y-80540533D01*
X151609523Y-80540533D02*
X151561904Y-80683390D01*
X151561904Y-80683390D02*
X150990476Y-81254819D01*
X150990476Y-81254819D02*
X151609523Y-81254819D01*
X143358333Y-92004819D02*
X143025000Y-91528628D01*
X142786905Y-92004819D02*
X142786905Y-91004819D01*
X142786905Y-91004819D02*
X143167857Y-91004819D01*
X143167857Y-91004819D02*
X143263095Y-91052438D01*
X143263095Y-91052438D02*
X143310714Y-91100057D01*
X143310714Y-91100057D02*
X143358333Y-91195295D01*
X143358333Y-91195295D02*
X143358333Y-91338152D01*
X143358333Y-91338152D02*
X143310714Y-91433390D01*
X143310714Y-91433390D02*
X143263095Y-91481009D01*
X143263095Y-91481009D02*
X143167857Y-91528628D01*
X143167857Y-91528628D02*
X142786905Y-91528628D01*
X143691667Y-91004819D02*
X144310714Y-91004819D01*
X144310714Y-91004819D02*
X143977381Y-91385771D01*
X143977381Y-91385771D02*
X144120238Y-91385771D01*
X144120238Y-91385771D02*
X144215476Y-91433390D01*
X144215476Y-91433390D02*
X144263095Y-91481009D01*
X144263095Y-91481009D02*
X144310714Y-91576247D01*
X144310714Y-91576247D02*
X144310714Y-91814342D01*
X144310714Y-91814342D02*
X144263095Y-91909580D01*
X144263095Y-91909580D02*
X144215476Y-91957200D01*
X144215476Y-91957200D02*
X144120238Y-92004819D01*
X144120238Y-92004819D02*
X143834524Y-92004819D01*
X143834524Y-92004819D02*
X143739286Y-91957200D01*
X143739286Y-91957200D02*
X143691667Y-91909580D01*
D11*
%TO.C,R13*%
X145477500Y-128342224D02*
X145477500Y-127832776D01*
X146522500Y-128342224D02*
X146522500Y-127832776D01*
%TO.C,J1*%
X135240000Y-82170000D02*
X135240000Y-84930000D01*
X145510000Y-82170000D02*
X135240000Y-82170000D01*
X145510000Y-82170000D02*
X145510000Y-84930000D01*
X145510000Y-84930000D02*
X135240000Y-84930000D01*
X146780000Y-82170000D02*
X148160000Y-82170000D01*
X148160000Y-82170000D02*
X148160000Y-83550000D01*
%TO.C,R1*%
X140867224Y-89027500D02*
X140357776Y-89027500D01*
X140867224Y-90072500D02*
X140357776Y-90072500D01*
%TO.C,JP2*%
X145300000Y-86850000D02*
X145300000Y-87450000D01*
X145600000Y-87150000D02*
X145300000Y-86850000D01*
X145600000Y-87150000D02*
X145300000Y-87450000D01*
X145800000Y-86400000D02*
X147800000Y-86400000D01*
X145800000Y-90500000D02*
X145800000Y-86400000D01*
X147800000Y-86400000D02*
X147800000Y-90500000D01*
X147800000Y-90500000D02*
X145800000Y-90500000D01*
%TO.C,R4*%
X135042224Y-93027500D02*
X134532776Y-93027500D01*
X135042224Y-94072500D02*
X134532776Y-94072500D01*
%TO.C,C3*%
X135396267Y-118240000D02*
X135103733Y-118240000D01*
X135396267Y-119260000D02*
X135103733Y-119260000D01*
%TO.C,R14*%
X148477500Y-128342224D02*
X148477500Y-127832776D01*
X149522500Y-128342224D02*
X149522500Y-127832776D01*
%TO.C,C1*%
X142190000Y-96796267D02*
X142190000Y-96503733D01*
X143210000Y-96796267D02*
X143210000Y-96503733D01*
%TO.C,R5*%
X134832776Y-100527500D02*
X135342224Y-100527500D01*
X134832776Y-101572500D02*
X135342224Y-101572500D01*
%TO.C,J3*%
X134580000Y-131150000D02*
X134580000Y-129450000D01*
X143920000Y-131150000D02*
X143920000Y-129450000D01*
%TO.C,R11*%
X150582776Y-114977500D02*
X151092224Y-114977500D01*
X150582776Y-116022500D02*
X151092224Y-116022500D01*
%TO.C,R6*%
X143832776Y-115977500D02*
X144342224Y-115977500D01*
X143832776Y-117022500D02*
X144342224Y-117022500D01*
%TO.C,JP1*%
X132907500Y-95100000D02*
X134907500Y-95100000D01*
X132907500Y-99200000D02*
X132907500Y-95100000D01*
X134907500Y-95100000D02*
X134907500Y-99200000D01*
X134907500Y-99200000D02*
X132907500Y-99200000D01*
X135107500Y-98450000D02*
X135407500Y-98150000D01*
X135107500Y-98450000D02*
X135407500Y-98750000D01*
X135407500Y-98750000D02*
X135407500Y-98150000D01*
%TO.C,D1*%
X134540000Y-120350000D02*
X134540000Y-124650000D01*
X134540000Y-120350000D02*
X141950000Y-120350000D01*
X134540000Y-124650000D02*
X141950000Y-124650000D01*
%TO.C,R10*%
X150582776Y-112977500D02*
X151092224Y-112977500D01*
X150582776Y-114022500D02*
X151092224Y-114022500D01*
%TO.C,J4*%
X152370000Y-107520000D02*
X152370000Y-102330000D01*
X155130000Y-102330000D02*
X152370000Y-102330000D01*
X155130000Y-107520000D02*
X152370000Y-107520000D01*
X155130000Y-107520000D02*
X155130000Y-102330000D01*
X155130000Y-108790000D02*
X155130000Y-110170000D01*
X155130000Y-110170000D02*
X153750000Y-110170000D01*
%TO.C,U1*%
X138280000Y-98450000D02*
X138280000Y-97045000D01*
X138675000Y-96650000D02*
X140120000Y-96650000D01*
X140120000Y-96650000D02*
X140120000Y-98450000D01*
X140120000Y-98450000D02*
X138280000Y-98450000D01*
X138280000Y-96650000D02*
X137780000Y-96650000D01*
X138280000Y-96150000D01*
X138280000Y-96650000D01*
G36*
X138280000Y-96650000D02*
G01*
X137780000Y-96650000D01*
X138280000Y-96150000D01*
X138280000Y-96650000D01*
G37*
%TO.C,R7*%
X143832776Y-117727500D02*
X144342224Y-117727500D01*
X143832776Y-118772500D02*
X144342224Y-118772500D01*
%TO.C,C4*%
X139241233Y-116490000D02*
X139533767Y-116490000D01*
X139241233Y-117510000D02*
X139533767Y-117510000D01*
%TO.C,R8*%
X144342224Y-109727500D02*
X143832776Y-109727500D01*
X144342224Y-110772500D02*
X143832776Y-110772500D01*
%TO.C,R9*%
X143832776Y-111727500D02*
X144342224Y-111727500D01*
X143832776Y-112772500D02*
X144342224Y-112772500D01*
%TO.C,J2*%
X134340000Y-105570000D02*
X134340000Y-108330000D01*
X139530000Y-105570000D02*
X134340000Y-105570000D01*
X139530000Y-105570000D02*
X139530000Y-108330000D01*
X139530000Y-108330000D02*
X134340000Y-108330000D01*
X140800000Y-105570000D02*
X142180000Y-105570000D01*
X142180000Y-105570000D02*
X142180000Y-106950000D01*
%TO.C,U2*%
X138250000Y-115250000D02*
X138250000Y-112750000D01*
X140250000Y-115250000D02*
X140250000Y-112750000D01*
X137950000Y-116280000D02*
X137470000Y-115800000D01*
X137950000Y-115800000D01*
X137950000Y-116280000D01*
G36*
X137950000Y-116280000D02*
G01*
X137470000Y-115800000D01*
X137950000Y-115800000D01*
X137950000Y-116280000D01*
G37*
%TO.C,R2*%
X140867224Y-93027500D02*
X140357776Y-93027500D01*
X140867224Y-94072500D02*
X140357776Y-94072500D01*
%TO.C,C5*%
X137146267Y-110240000D02*
X136853733Y-110240000D01*
X137146267Y-111260000D02*
X136853733Y-111260000D01*
%TO.C,C2*%
X139196267Y-100540000D02*
X138903733Y-100540000D01*
X139196267Y-101560000D02*
X138903733Y-101560000D01*
%TO.C,R3*%
X140867224Y-91027500D02*
X140357776Y-91027500D01*
X140867224Y-92072500D02*
X140357776Y-92072500D01*
%TD*%
M02*
