M48
; DRILL file {KiCad 9.0.3} date 2025-08-03T17:59:29+0530
; FORMAT={-:-/ absolute / metric / decimal}
; #@! TF.CreationDate,2025-08-03T17:59:29+05:30
; #@! TF.GenerationSoftware,Kicad,Pcbnew,9.0.3
; #@! TF.FileFunction,Plated,1,2,PTH
FMAT,2
METRIC
; #@! TA.AperFunction,Plated,PTH,ComponentDrill
T1C0.200
; #@! TA.AperFunction,Plated,PTH,ViaDrill
T2C0.300
; #@! TA.AperFunction,Plated,PTH,ComponentDrill
T3C0.600
; #@! TA.AperFunction,Plated,PTH,ComponentDrill
T4C1.000
%
G90
G05
T1
X138.75Y-114.0
X139.75Y-114.0
T2
X125.0Y-85.0
X125.0Y-90.0
X125.0Y-95.0
X125.0Y-100.0
X125.0Y-105.0
X125.0Y-110.0
X125.0Y-115.0
X125.0Y-120.0
X125.0Y-125.0
X125.0Y-130.0
X130.0Y-117.5
X130.0Y-122.5
X130.0Y-127.5
X130.5Y-87.5
X130.5Y-91.5
X130.5Y-95.5
X130.5Y-99.5
X131.5Y-120.0
X131.5Y-122.0
X131.5Y-124.0
X131.5Y-126.0
X132.5Y-132.5
X133.0Y-103.0
X133.0Y-105.0
X133.0Y-107.0
X133.25Y-118.75
X133.5Y-83.6
X133.5Y-126.0
X134.5Y-109.5
X134.5Y-111.0
X134.9Y-104.65
X134.95Y-103.5
X135.0Y-81.6
X135.0Y-85.5
X135.0Y-87.5
X135.0Y-90.0
X135.0Y-92.15
X135.0Y-117.0
X135.2Y-83.55
X135.4Y-126.4
X135.8Y-92.15
X135.95Y-109.55
X136.5Y-97.15
X136.5Y-132.325
X137.1Y-102.15
X137.2Y-99.85
X137.7Y-99.35
X137.75Y-114.0
X138.01Y-104.66
X138.188Y-103.35
X138.2Y-102.05
X138.35Y-98.7
X138.4Y-99.35
X138.4Y-99.95
X138.5Y-81.5
X138.5Y-92.25
X138.65Y-118.25
X138.7Y-90.05
X138.8Y-112.0
X139.5Y-88.0
X139.5Y-132.325
X139.7Y-94.55
X140.75Y-114.0
X141.0Y-86.0
X141.5Y-81.5
X142.0Y-132.325
X142.1Y-111.5
X142.5Y-91.75
X142.5Y-92.55
X142.5Y-93.35
X143.0Y-126.4
X143.95Y-94.55
X143.95Y-95.8
X144.0Y-100.0
X144.0Y-103.0
X144.0Y-105.5
X144.0Y-108.0
X144.5Y-81.5
X144.5Y-86.5
X145.0Y-113.25
X145.0Y-119.6
X145.0Y-121.1
X145.0Y-122.4
X145.0Y-126.0
X146.0Y-132.5
X146.1Y-110.4
X146.2Y-116.5
X146.3Y-118.2
X146.5Y-98.0
X146.5Y-111.5
X147.5Y-81.5
X147.6Y-125.9
X147.6Y-127.175
X148.75Y-113.75
X148.75Y-115.25
X149.0Y-82.5
X149.0Y-84.5
X149.0Y-86.5
X149.0Y-92.5
X149.0Y-95.5
X149.1Y-89.2
X150.0Y-117.5
X150.0Y-122.5
X150.0Y-126.0
X150.0Y-127.5
X150.0Y-132.5
X156.0Y-85.0
X156.0Y-90.0
X156.0Y-95.0
X156.0Y-100.0
X156.0Y-105.0
X156.0Y-115.0
X156.0Y-120.0
X156.0Y-125.0
X156.0Y-130.127
T4
X135.72Y-106.95
X136.62Y-83.55
X138.26Y-106.95
X139.16Y-83.55
X140.8Y-106.95
X141.7Y-83.55
X144.24Y-83.55
X146.78Y-83.55
X153.75Y-103.71
X153.75Y-106.25
X153.75Y-108.79
T3
G00X134.93Y-127.595
M15
G01X134.93Y-128.695
M16
G05
G00X134.93Y-131.925
M15
G01X134.93Y-132.725
M16
G05
G00X143.57Y-127.595
M15
G01X143.57Y-128.695
M16
G05
G00X143.57Y-131.925
M15
G01X143.57Y-132.725
M16
G05
M30
