%TF.GenerationSoftware,KiCad,Pcbnew,9.0.3*%
%TF.CreationDate,2025-08-03T17:59:23+05:30*%
%TF.ProjectId,BatteryCharger_FuelGauge_Breakout_Board,42617474-6572-4794-9368-61726765725f,rev?*%
%TF.SameCoordinates,Original*%
%TF.FileFunction,Copper,L2,Bot*%
%TF.FilePolarity,Positive*%
%FSLAX46Y46*%
G04 Gerber Fmt 4.6, Leading zero omitted, Abs format (unit mm)*
G04 Created by KiCad (PCBNEW 9.0.3) date 2025-08-03 17:59:23*
%MOMM*%
%LPD*%
G01*
G04 APERTURE LIST*
%TA.AperFunction,Conductor*%
%ADD10C,0.100000*%
%TD*%
%TA.AperFunction,ComponentPad*%
%ADD11R,1.700000X1.700000*%
%TD*%
%TA.AperFunction,ComponentPad*%
%ADD12C,1.700000*%
%TD*%
%TA.AperFunction,HeatsinkPad*%
%ADD13O,1.000000X2.100000*%
%TD*%
%TA.AperFunction,HeatsinkPad*%
%ADD14O,1.000000X1.800000*%
%TD*%
%TA.AperFunction,ComponentPad*%
%ADD15C,0.300000*%
%TD*%
%TA.AperFunction,ViaPad*%
%ADD16C,0.600000*%
%TD*%
%TA.AperFunction,Conductor*%
%ADD17C,0.200000*%
%TD*%
%TA.AperFunction,Conductor*%
%ADD18C,0.500000*%
%TD*%
%TA.AperFunction,Conductor*%
%ADD19C,1.000000*%
%TD*%
G04 APERTURE END LIST*
D10*
%TO.N,VDDEx*%
X136200000Y-92450000D02*
X134600000Y-92450000D01*
X134600000Y-91650000D01*
X136200000Y-91650000D01*
X136200000Y-92450000D01*
%TA.AperFunction,Conductor*%
G36*
X136200000Y-92450000D02*
G01*
X134600000Y-92450000D01*
X134600000Y-91650000D01*
X136200000Y-91650000D01*
X136200000Y-92450000D01*
G37*
%TD.AperFunction*%
%TD*%
D11*
%TO.P,J1,1,Pin_1*%
%TO.N,VDDE*%
X146780000Y-83550000D03*
D12*
%TO.P,J1,2,Pin_2*%
%TO.N,/GPOUT*%
X144240000Y-83550000D03*
%TO.P,J1,3,Pin_3*%
%TO.N,/SCL*%
X141700000Y-83550000D03*
%TO.P,J1,4,Pin_4*%
%TO.N,/SDA*%
X139160000Y-83550000D03*
%TO.P,J1,5,Pin_5*%
%TO.N,GNDREF*%
X136620000Y-83550000D03*
%TD*%
D13*
%TO.P,J3,S1,SHIELD*%
%TO.N,GNDREF*%
X134930000Y-128145000D03*
D14*
X134930000Y-132325000D03*
D13*
X143570000Y-128145000D03*
D14*
X143570000Y-132325000D03*
%TD*%
D11*
%TO.P,J4,1,Pin_1*%
%TO.N,/~{CHG}*%
X153750000Y-108790000D03*
D12*
%TO.P,J4,2,Pin_2*%
%TO.N,/~{PG}*%
X153750000Y-106250000D03*
%TO.P,J4,3,Pin_3*%
%TO.N,GNDREF*%
X153750000Y-103710000D03*
%TD*%
D11*
%TO.P,J2,1,Pin_1*%
%TO.N,+BATT*%
X140800000Y-106950000D03*
D12*
%TO.P,J2,2,Pin_2*%
%TO.N,/BIN*%
X138260000Y-106950000D03*
%TO.P,J2,3,Pin_3*%
%TO.N,GNDREF*%
X135720000Y-106950000D03*
%TD*%
D15*
%TO.P,U2,11,EPAD*%
%TO.N,GNDREF*%
X138750000Y-114000000D03*
X139750000Y-114000000D03*
%TD*%
D16*
%TO.N,GNDREF*%
X139500000Y-88000000D03*
X138200000Y-102050000D03*
X133000000Y-107000000D03*
X150000000Y-122500000D03*
X130000000Y-127500000D03*
X138010000Y-104660000D03*
X137700000Y-99350000D03*
X125000000Y-115000000D03*
X144000000Y-103000000D03*
X125000000Y-120000000D03*
X130500000Y-91500000D03*
X143950000Y-94550000D03*
X140750000Y-114000000D03*
X142000000Y-132325000D03*
X125000000Y-100000000D03*
X133000000Y-103000000D03*
X133000000Y-105000000D03*
X138187500Y-103350000D03*
X138400000Y-99350000D03*
X125000000Y-85000000D03*
X144000000Y-108000000D03*
X135000000Y-90000000D03*
X130500000Y-95500000D03*
X139500000Y-132325000D03*
X145000000Y-119600000D03*
X141000000Y-86000000D03*
X149000000Y-82500000D03*
X131500000Y-120000000D03*
X135400000Y-126400000D03*
X135000000Y-87500000D03*
X147600000Y-127175000D03*
X137200000Y-99850000D03*
X146300000Y-118200000D03*
X125000000Y-105000000D03*
X125000000Y-95000000D03*
X144000000Y-105500000D03*
X131500000Y-124000000D03*
X143000000Y-126400000D03*
X138400000Y-99950000D03*
X147500000Y-81500000D03*
X143950000Y-95800000D03*
X156000000Y-95000000D03*
X144000000Y-100000000D03*
X147600000Y-125900000D03*
X134500000Y-111000000D03*
X145000000Y-113250000D03*
X149000000Y-86500000D03*
X138350000Y-98700000D03*
X156000000Y-100000000D03*
X138500000Y-81500000D03*
X156000000Y-115000000D03*
X135000000Y-85500000D03*
X150000000Y-117500000D03*
X130000000Y-117500000D03*
X131500000Y-126000000D03*
X133500000Y-83600000D03*
X130000000Y-122500000D03*
X144500000Y-81500000D03*
X146200000Y-116500000D03*
X144500000Y-86500000D03*
X150000000Y-132500000D03*
X132500000Y-132500000D03*
X137100000Y-102150000D03*
X134500000Y-109500000D03*
X156000000Y-90000000D03*
X141500000Y-81500000D03*
X156000000Y-120000000D03*
X125000000Y-125000000D03*
X145000000Y-121100000D03*
X135000000Y-81600000D03*
X156000000Y-105000000D03*
X134900000Y-104650000D03*
X134950000Y-103500000D03*
X135200000Y-83550000D03*
X156000000Y-130127397D03*
X149000000Y-92500000D03*
X136500000Y-132325000D03*
X149000000Y-95500000D03*
X125000000Y-110000000D03*
X146500000Y-98000000D03*
X135950000Y-109550000D03*
X137750000Y-114000000D03*
X149000000Y-84500000D03*
X156000000Y-85000000D03*
X146000000Y-132500000D03*
X125000000Y-130000000D03*
X150000000Y-126000000D03*
X145000000Y-122400000D03*
X131500000Y-122000000D03*
X135000000Y-117000000D03*
X133250000Y-118750000D03*
X130500000Y-99500000D03*
X133500000Y-126000000D03*
X145000000Y-126000000D03*
X125000000Y-90000000D03*
X150000000Y-127500000D03*
X156000000Y-125000000D03*
X130500000Y-87500000D03*
%TO.N,/GPOUT*%
X138700000Y-90050000D03*
%TO.N,/SCL*%
X139700000Y-94550000D03*
%TO.N,/SDA*%
X138500000Y-92250000D03*
%TO.N,/BIN*%
X138800000Y-112000000D03*
X136500000Y-97150000D03*
%TO.N,VDDEx*%
X135800000Y-92150000D03*
X148750000Y-113750000D03*
X142500000Y-91750000D03*
X142500000Y-93350000D03*
X148750000Y-115250000D03*
X149100000Y-89200000D03*
X135000000Y-92150000D03*
X142500000Y-92550000D03*
%TO.N,Net-(D1-A1)*%
X138650000Y-118250000D03*
X146100000Y-110400000D03*
%TO.N,/~{CHG}*%
X142100000Y-111500000D03*
X146500000Y-111500000D03*
%TD*%
D17*
%TO.N,/GPOUT*%
X144300000Y-84550000D02*
X144240000Y-84490000D01*
X144240000Y-84490000D02*
X144240000Y-83550000D01*
X138700000Y-90050000D02*
X138800000Y-90050000D01*
X138800000Y-90050000D02*
X144300000Y-84550000D01*
%TO.N,/SCL*%
X139700000Y-92177991D02*
X137698000Y-90175991D01*
X139700000Y-94550000D02*
X139700000Y-92177991D01*
X137698000Y-90175991D02*
X137698000Y-87552000D01*
X137698000Y-87552000D02*
X141700000Y-83550000D01*
%TO.N,/SDA*%
X137100000Y-90850000D02*
X137100000Y-85610000D01*
X138500000Y-92250000D02*
X137100000Y-90850000D01*
X137100000Y-85610000D02*
X139160000Y-83550000D01*
%TO.N,/BIN*%
X136400000Y-105090000D02*
X138260000Y-106950000D01*
X136400000Y-97250000D02*
X136400000Y-105090000D01*
X139000000Y-111000000D02*
X139000000Y-107690000D01*
X139000000Y-107690000D02*
X138260000Y-106950000D01*
X138800000Y-112000000D02*
X138800000Y-111200000D01*
X138800000Y-111200000D02*
X139000000Y-111000000D01*
X136500000Y-97150000D02*
X136400000Y-97250000D01*
D18*
%TO.N,VDDEx*%
X150900000Y-111300000D02*
X150900000Y-91000000D01*
D19*
X135000000Y-94050000D02*
X136700000Y-95750000D01*
X136700000Y-95750000D02*
X141100000Y-95750000D01*
D17*
X141200000Y-95250000D02*
X142500000Y-93950000D01*
D18*
X148750000Y-113450000D02*
X150900000Y-111300000D01*
D19*
X142500000Y-94350000D02*
X142500000Y-91750000D01*
X141100000Y-95750000D02*
X142500000Y-94350000D01*
D17*
X137500000Y-95250000D02*
X141200000Y-95250000D01*
D19*
X135800000Y-93550000D02*
X137500000Y-95250000D01*
D17*
X142500000Y-93950000D02*
X142500000Y-93350000D01*
D19*
X135800000Y-92150000D02*
X135800000Y-93550000D01*
D18*
X148750000Y-113750000D02*
X148750000Y-115250000D01*
X150900000Y-91000000D02*
X149100000Y-89200000D01*
X148750000Y-113750000D02*
X148750000Y-113450000D01*
D19*
X135000000Y-92150000D02*
X135000000Y-94050000D01*
D17*
X135000000Y-92150000D02*
X135000000Y-91850000D01*
%TO.N,Net-(D1-A1)*%
X146600000Y-110400000D02*
X146100000Y-110400000D01*
X147400000Y-112700000D02*
X147400000Y-111200000D01*
X147400000Y-111200000D02*
X146600000Y-110400000D01*
X138650000Y-118250000D02*
X141850000Y-118250000D01*
X141850000Y-118250000D02*
X147400000Y-112700000D01*
%TO.N,/~{CHG}*%
X142100000Y-111500000D02*
X146500000Y-111500000D01*
%TD*%
%TA.AperFunction,Conductor*%
%TO.N,GNDREF*%
G36*
X156642539Y-80070185D02*
G01*
X156688294Y-80122989D01*
X156699500Y-80174500D01*
X156699500Y-134375500D01*
X156679815Y-134442539D01*
X156627011Y-134488294D01*
X156575500Y-134499500D01*
X124324500Y-134499500D01*
X124257461Y-134479815D01*
X124211706Y-134427011D01*
X124200500Y-134375500D01*
X124200500Y-131893713D01*
X125649500Y-131893713D01*
X125649500Y-132106286D01*
X125682753Y-132316239D01*
X125748444Y-132518414D01*
X125844951Y-132707820D01*
X125969890Y-132879786D01*
X126120213Y-133030109D01*
X126292179Y-133155048D01*
X126292181Y-133155049D01*
X126292184Y-133155051D01*
X126481588Y-133251557D01*
X126683757Y-133317246D01*
X126893713Y-133350500D01*
X126893714Y-133350500D01*
X127106286Y-133350500D01*
X127106287Y-133350500D01*
X127316243Y-133317246D01*
X127518412Y-133251557D01*
X127707816Y-133155051D01*
X127729789Y-133139086D01*
X127879786Y-133030109D01*
X127879788Y-133030106D01*
X127879792Y-133030104D01*
X128030104Y-132879792D01*
X128030106Y-132879788D01*
X128030109Y-132879786D01*
X128155048Y-132707820D01*
X128155047Y-132707820D01*
X128155051Y-132707816D01*
X128251557Y-132518412D01*
X128317246Y-132316243D01*
X128350500Y-132106287D01*
X128350500Y-131893713D01*
X152649500Y-131893713D01*
X152649500Y-132106286D01*
X152682753Y-132316239D01*
X152748444Y-132518414D01*
X152844951Y-132707820D01*
X152969890Y-132879786D01*
X153120213Y-133030109D01*
X153292179Y-133155048D01*
X153292181Y-133155049D01*
X153292184Y-133155051D01*
X153481588Y-133251557D01*
X153683757Y-133317246D01*
X153893713Y-133350500D01*
X153893714Y-133350500D01*
X154106286Y-133350500D01*
X154106287Y-133350500D01*
X154316243Y-133317246D01*
X154518412Y-133251557D01*
X154707816Y-133155051D01*
X154729789Y-133139086D01*
X154879786Y-133030109D01*
X154879788Y-133030106D01*
X154879792Y-133030104D01*
X155030104Y-132879792D01*
X155030106Y-132879788D01*
X155030109Y-132879786D01*
X155155048Y-132707820D01*
X155155047Y-132707820D01*
X155155051Y-132707816D01*
X155251557Y-132518412D01*
X155317246Y-132316243D01*
X155350500Y-132106287D01*
X155350500Y-131893713D01*
X155317246Y-131683757D01*
X155251557Y-131481588D01*
X155155051Y-131292184D01*
X155155049Y-131292181D01*
X155155048Y-131292179D01*
X155030109Y-131120213D01*
X154879786Y-130969890D01*
X154707820Y-130844951D01*
X154518414Y-130748444D01*
X154518413Y-130748443D01*
X154518412Y-130748443D01*
X154316243Y-130682754D01*
X154316241Y-130682753D01*
X154316240Y-130682753D01*
X154154957Y-130657208D01*
X154106287Y-130649500D01*
X153893713Y-130649500D01*
X153845042Y-130657208D01*
X153683760Y-130682753D01*
X153481585Y-130748444D01*
X153292179Y-130844951D01*
X153120213Y-130969890D01*
X152969890Y-131120213D01*
X152844951Y-131292179D01*
X152748444Y-131481585D01*
X152682753Y-131683760D01*
X152649500Y-131893713D01*
X128350500Y-131893713D01*
X128317246Y-131683757D01*
X128251557Y-131481588D01*
X128155051Y-131292184D01*
X128155049Y-131292181D01*
X128155048Y-131292179D01*
X128030109Y-131120213D01*
X127879786Y-130969890D01*
X127707820Y-130844951D01*
X127518414Y-130748444D01*
X127518413Y-130748443D01*
X127518412Y-130748443D01*
X127316243Y-130682754D01*
X127316241Y-130682753D01*
X127316240Y-130682753D01*
X127154957Y-130657208D01*
X127106287Y-130649500D01*
X126893713Y-130649500D01*
X126845042Y-130657208D01*
X126683760Y-130682753D01*
X126481585Y-130748444D01*
X126292179Y-130844951D01*
X126120213Y-130969890D01*
X125969890Y-131120213D01*
X125844951Y-131292179D01*
X125748444Y-131481585D01*
X125682753Y-131683760D01*
X125649500Y-131893713D01*
X124200500Y-131893713D01*
X124200500Y-128569234D01*
X135784500Y-128569234D01*
X135784500Y-128720765D01*
X135823719Y-128867136D01*
X135861602Y-128932750D01*
X135899485Y-128998365D01*
X136006635Y-129105515D01*
X136137865Y-129181281D01*
X136284234Y-129220500D01*
X136284236Y-129220500D01*
X136435764Y-129220500D01*
X136435766Y-129220500D01*
X136582135Y-129181281D01*
X136713365Y-129105515D01*
X136820515Y-128998365D01*
X136896281Y-128867135D01*
X136935500Y-128720766D01*
X136935500Y-128569234D01*
X141564500Y-128569234D01*
X141564500Y-128720765D01*
X141603719Y-128867136D01*
X141641602Y-128932750D01*
X141679485Y-128998365D01*
X141786635Y-129105515D01*
X141917865Y-129181281D01*
X142064234Y-129220500D01*
X142064236Y-129220500D01*
X142215764Y-129220500D01*
X142215766Y-129220500D01*
X142362135Y-129181281D01*
X142493365Y-129105515D01*
X142600515Y-128998365D01*
X142676281Y-128867135D01*
X142715500Y-128720766D01*
X142715500Y-128569234D01*
X142676281Y-128422865D01*
X142600515Y-128291635D01*
X142493365Y-128184485D01*
X142427750Y-128146602D01*
X142362136Y-128108719D01*
X142288950Y-128089109D01*
X142215766Y-128069500D01*
X142064234Y-128069500D01*
X141917863Y-128108719D01*
X141786635Y-128184485D01*
X141786632Y-128184487D01*
X141679487Y-128291632D01*
X141679485Y-128291635D01*
X141603719Y-128422863D01*
X141564500Y-128569234D01*
X136935500Y-128569234D01*
X136896281Y-128422865D01*
X136820515Y-128291635D01*
X136713365Y-128184485D01*
X136647750Y-128146602D01*
X136582136Y-128108719D01*
X136508950Y-128089109D01*
X136435766Y-128069500D01*
X136284234Y-128069500D01*
X136137863Y-128108719D01*
X136006635Y-128184485D01*
X136006632Y-128184487D01*
X135899487Y-128291632D01*
X135899485Y-128291635D01*
X135823719Y-128422863D01*
X135784500Y-128569234D01*
X124200500Y-128569234D01*
X124200500Y-118190691D01*
X138199500Y-118190691D01*
X138199500Y-118309309D01*
X138230201Y-118423886D01*
X138289511Y-118526613D01*
X138373387Y-118610489D01*
X138476114Y-118669799D01*
X138590691Y-118700500D01*
X138590694Y-118700500D01*
X138709306Y-118700500D01*
X138709309Y-118700500D01*
X138823886Y-118669799D01*
X138926613Y-118610489D01*
X139000283Y-118536819D01*
X139061606Y-118503334D01*
X139087964Y-118500500D01*
X141899826Y-118500500D01*
X141899828Y-118500500D01*
X141991897Y-118462364D01*
X146763570Y-113690691D01*
X148299500Y-113690691D01*
X148299500Y-113809309D01*
X148330201Y-113923886D01*
X148332886Y-113928537D01*
X148349500Y-113990537D01*
X148349500Y-115009461D01*
X148332889Y-115071458D01*
X148330202Y-115076111D01*
X148330201Y-115076112D01*
X148314850Y-115133402D01*
X148299500Y-115190691D01*
X148299500Y-115309309D01*
X148330201Y-115423886D01*
X148389511Y-115526613D01*
X148473387Y-115610489D01*
X148576114Y-115669799D01*
X148690691Y-115700500D01*
X148690694Y-115700500D01*
X148809306Y-115700500D01*
X148809309Y-115700500D01*
X148923886Y-115669799D01*
X149026613Y-115610489D01*
X149110489Y-115526613D01*
X149169799Y-115423886D01*
X149200500Y-115309309D01*
X149200500Y-115190691D01*
X149169799Y-115076114D01*
X149167111Y-115071458D01*
X149150500Y-115009461D01*
X149150500Y-113990537D01*
X149167113Y-113928537D01*
X149169799Y-113923886D01*
X149200500Y-113809309D01*
X149200500Y-113690691D01*
X149192656Y-113661418D01*
X149194317Y-113591569D01*
X149224747Y-113541644D01*
X151220480Y-111545913D01*
X151273207Y-111454588D01*
X151300500Y-111352727D01*
X151300500Y-111247273D01*
X151300500Y-109654822D01*
X152749499Y-109654822D01*
X152758231Y-109698717D01*
X152758232Y-109698721D01*
X152758233Y-109698722D01*
X152791496Y-109748504D01*
X152841278Y-109781767D01*
X152841281Y-109781767D01*
X152841282Y-109781768D01*
X152885177Y-109790500D01*
X152885180Y-109790500D01*
X154614822Y-109790500D01*
X154658717Y-109781768D01*
X154658717Y-109781767D01*
X154658722Y-109781767D01*
X154708504Y-109748504D01*
X154741767Y-109698722D01*
X154750500Y-109654820D01*
X154750500Y-107925180D01*
X154750500Y-107925177D01*
X154741768Y-107881282D01*
X154741767Y-107881281D01*
X154741767Y-107881278D01*
X154708504Y-107831496D01*
X154708503Y-107831495D01*
X154658724Y-107798234D01*
X154658717Y-107798231D01*
X154614822Y-107789500D01*
X154614820Y-107789500D01*
X152885180Y-107789500D01*
X152885178Y-107789500D01*
X152841282Y-107798231D01*
X152841275Y-107798234D01*
X152791496Y-107831495D01*
X152791495Y-107831496D01*
X152758234Y-107881275D01*
X152758231Y-107881282D01*
X152749500Y-107925177D01*
X152749500Y-107925180D01*
X152749500Y-109654820D01*
X152749500Y-109654822D01*
X152749499Y-109654822D01*
X151300500Y-109654822D01*
X151300500Y-106348543D01*
X152749499Y-106348543D01*
X152787947Y-106541829D01*
X152787950Y-106541839D01*
X152863364Y-106723907D01*
X152863371Y-106723920D01*
X152972860Y-106887781D01*
X152972863Y-106887785D01*
X153112214Y-107027136D01*
X153112218Y-107027139D01*
X153276079Y-107136628D01*
X153276092Y-107136635D01*
X153458160Y-107212049D01*
X153458165Y-107212051D01*
X153458169Y-107212051D01*
X153458170Y-107212052D01*
X153651456Y-107250500D01*
X153651459Y-107250500D01*
X153848543Y-107250500D01*
X153978582Y-107224632D01*
X154041835Y-107212051D01*
X154223914Y-107136632D01*
X154387782Y-107027139D01*
X154527139Y-106887782D01*
X154636632Y-106723914D01*
X154712051Y-106541835D01*
X154732807Y-106437487D01*
X154750500Y-106348543D01*
X154750500Y-106151456D01*
X154712052Y-105958170D01*
X154712051Y-105958169D01*
X154712051Y-105958165D01*
X154708462Y-105949500D01*
X154636635Y-105776092D01*
X154636628Y-105776079D01*
X154527139Y-105612218D01*
X154527136Y-105612214D01*
X154387785Y-105472863D01*
X154387781Y-105472860D01*
X154223920Y-105363371D01*
X154223907Y-105363364D01*
X154041839Y-105287950D01*
X154041829Y-105287947D01*
X153848543Y-105249500D01*
X153848541Y-105249500D01*
X153651459Y-105249500D01*
X153651457Y-105249500D01*
X153458170Y-105287947D01*
X153458160Y-105287950D01*
X153276092Y-105363364D01*
X153276079Y-105363371D01*
X153112218Y-105472860D01*
X153112214Y-105472863D01*
X152972863Y-105612214D01*
X152972860Y-105612218D01*
X152863371Y-105776079D01*
X152863364Y-105776092D01*
X152787950Y-105958160D01*
X152787947Y-105958170D01*
X152749500Y-106151456D01*
X152749500Y-106151459D01*
X152749500Y-106348541D01*
X152749500Y-106348543D01*
X152749499Y-106348543D01*
X151300500Y-106348543D01*
X151300500Y-90947273D01*
X151273207Y-90845413D01*
X151220480Y-90754087D01*
X151145913Y-90679520D01*
X149553283Y-89086890D01*
X149521188Y-89031298D01*
X149519799Y-89026114D01*
X149519798Y-89026112D01*
X149460489Y-88923387D01*
X149376613Y-88839511D01*
X149273886Y-88780201D01*
X149159309Y-88749500D01*
X149040691Y-88749500D01*
X148926114Y-88780201D01*
X148926112Y-88780201D01*
X148926112Y-88780202D01*
X148823387Y-88839511D01*
X148823384Y-88839513D01*
X148739513Y-88923384D01*
X148739511Y-88923387D01*
X148680201Y-89026114D01*
X148649500Y-89140691D01*
X148649500Y-89259309D01*
X148680201Y-89373886D01*
X148739511Y-89476613D01*
X148823387Y-89560489D01*
X148908981Y-89609907D01*
X148926114Y-89619799D01*
X148931298Y-89621188D01*
X148986890Y-89653283D01*
X150463181Y-91129574D01*
X150496666Y-91190897D01*
X150499500Y-91217255D01*
X150499500Y-111082745D01*
X150479815Y-111149784D01*
X150463181Y-111170426D01*
X148429522Y-113204084D01*
X148429520Y-113204087D01*
X148376794Y-113295410D01*
X148351581Y-113389508D01*
X148351580Y-113389512D01*
X148349500Y-113397273D01*
X148349500Y-113509461D01*
X148349339Y-113510061D01*
X148344630Y-113543871D01*
X148340438Y-113558381D01*
X148330201Y-113576114D01*
X148299500Y-113690691D01*
X146763570Y-113690691D01*
X147612364Y-112841897D01*
X147650500Y-112749828D01*
X147650500Y-112650172D01*
X147650500Y-111150172D01*
X147612364Y-111058103D01*
X147541897Y-110987636D01*
X147534832Y-110980571D01*
X147534825Y-110980565D01*
X146741897Y-110187636D01*
X146649829Y-110149500D01*
X146649828Y-110149500D01*
X146537964Y-110149500D01*
X146470925Y-110129815D01*
X146450283Y-110113181D01*
X146376615Y-110039513D01*
X146376613Y-110039511D01*
X146273886Y-109980201D01*
X146159309Y-109949500D01*
X146040691Y-109949500D01*
X145926114Y-109980201D01*
X145926112Y-109980201D01*
X145926112Y-109980202D01*
X145823387Y-110039511D01*
X145823384Y-110039513D01*
X145739513Y-110123384D01*
X145739511Y-110123387D01*
X145724435Y-110149500D01*
X145680201Y-110226114D01*
X145649500Y-110340691D01*
X145649500Y-110459309D01*
X145680201Y-110573886D01*
X145739511Y-110676613D01*
X145823387Y-110760489D01*
X145926114Y-110819799D01*
X146040691Y-110850500D01*
X146040694Y-110850500D01*
X146159306Y-110850500D01*
X146159309Y-110850500D01*
X146273886Y-110819799D01*
X146376613Y-110760489D01*
X146403741Y-110733360D01*
X146411684Y-110729023D01*
X146417110Y-110721776D01*
X146441865Y-110712542D01*
X146465060Y-110699877D01*
X146474091Y-110700522D01*
X146482574Y-110697359D01*
X146508395Y-110702976D01*
X146534752Y-110704861D01*
X146543805Y-110710679D01*
X146550847Y-110712211D01*
X146579101Y-110733362D01*
X146690968Y-110845229D01*
X146724453Y-110906552D01*
X146719469Y-110976244D01*
X146677597Y-111032177D01*
X146612133Y-111056594D01*
X146571196Y-111052685D01*
X146559309Y-111049500D01*
X146440691Y-111049500D01*
X146326114Y-111080201D01*
X146326112Y-111080201D01*
X146326112Y-111080202D01*
X146223387Y-111139511D01*
X146223384Y-111139513D01*
X146149717Y-111213181D01*
X146088394Y-111246666D01*
X146062036Y-111249500D01*
X142537964Y-111249500D01*
X142470925Y-111229815D01*
X142450283Y-111213181D01*
X142376615Y-111139513D01*
X142376613Y-111139511D01*
X142273886Y-111080201D01*
X142159309Y-111049500D01*
X142040691Y-111049500D01*
X141926114Y-111080201D01*
X141926112Y-111080201D01*
X141926112Y-111080202D01*
X141823387Y-111139511D01*
X141823384Y-111139513D01*
X141739513Y-111223384D01*
X141739511Y-111223387D01*
X141724435Y-111249500D01*
X141680201Y-111326114D01*
X141649500Y-111440691D01*
X141649500Y-111559309D01*
X141680201Y-111673886D01*
X141739511Y-111776613D01*
X141823387Y-111860489D01*
X141926114Y-111919799D01*
X142040691Y-111950500D01*
X142040694Y-111950500D01*
X142159306Y-111950500D01*
X142159309Y-111950500D01*
X142273886Y-111919799D01*
X142376613Y-111860489D01*
X142450283Y-111786819D01*
X142511606Y-111753334D01*
X142537964Y-111750500D01*
X146062036Y-111750500D01*
X146129075Y-111770185D01*
X146149717Y-111786819D01*
X146223387Y-111860489D01*
X146326114Y-111919799D01*
X146440691Y-111950500D01*
X146440694Y-111950500D01*
X146559306Y-111950500D01*
X146559309Y-111950500D01*
X146673886Y-111919799D01*
X146776613Y-111860489D01*
X146860489Y-111776613D01*
X146918113Y-111676805D01*
X146968681Y-111628591D01*
X147037288Y-111615369D01*
X147102152Y-111641337D01*
X147142680Y-111698251D01*
X147149500Y-111738807D01*
X147149500Y-112544877D01*
X147129815Y-112611916D01*
X147113181Y-112632558D01*
X141782558Y-117963181D01*
X141721235Y-117996666D01*
X141694877Y-117999500D01*
X139087964Y-117999500D01*
X139020925Y-117979815D01*
X139000283Y-117963181D01*
X138926615Y-117889513D01*
X138926613Y-117889511D01*
X138823886Y-117830201D01*
X138709309Y-117799500D01*
X138590691Y-117799500D01*
X138476114Y-117830201D01*
X138476112Y-117830201D01*
X138476112Y-117830202D01*
X138373387Y-117889511D01*
X138373384Y-117889513D01*
X138289513Y-117973384D01*
X138289511Y-117973387D01*
X138274435Y-117999500D01*
X138230201Y-118076114D01*
X138199500Y-118190691D01*
X124200500Y-118190691D01*
X124200500Y-97090691D01*
X136049500Y-97090691D01*
X136049500Y-97209309D01*
X136080201Y-97323886D01*
X136132887Y-97415140D01*
X136149500Y-97477140D01*
X136149500Y-105139829D01*
X136187636Y-105231897D01*
X137331903Y-106376164D01*
X137365388Y-106437487D01*
X137360404Y-106507179D01*
X137358783Y-106511297D01*
X137297950Y-106658160D01*
X137297947Y-106658170D01*
X137259500Y-106851456D01*
X137259500Y-106851459D01*
X137259500Y-107048541D01*
X137259500Y-107048543D01*
X137259499Y-107048543D01*
X137297947Y-107241829D01*
X137297950Y-107241839D01*
X137373364Y-107423907D01*
X137373371Y-107423920D01*
X137482860Y-107587781D01*
X137482863Y-107587785D01*
X137622214Y-107727136D01*
X137622218Y-107727139D01*
X137786079Y-107836628D01*
X137786092Y-107836635D01*
X137968160Y-107912049D01*
X137968165Y-107912051D01*
X137968169Y-107912051D01*
X137968170Y-107912052D01*
X138161456Y-107950500D01*
X138161459Y-107950500D01*
X138358543Y-107950500D01*
X138488582Y-107924632D01*
X138551835Y-107912051D01*
X138578049Y-107901192D01*
X138647515Y-107893724D01*
X138709995Y-107924998D01*
X138745648Y-107985087D01*
X138749500Y-108015754D01*
X138749500Y-110844875D01*
X138740856Y-110874311D01*
X138734333Y-110904301D01*
X138730577Y-110909317D01*
X138729815Y-110911914D01*
X138713182Y-110932556D01*
X138695569Y-110950169D01*
X138658103Y-110987635D01*
X138640661Y-111005078D01*
X138587636Y-111058103D01*
X138549500Y-111150170D01*
X138549500Y-111562035D01*
X138529815Y-111629074D01*
X138513182Y-111649716D01*
X138439511Y-111723387D01*
X138408780Y-111776615D01*
X138380201Y-111826114D01*
X138349500Y-111940691D01*
X138349500Y-112059309D01*
X138380201Y-112173886D01*
X138439511Y-112276613D01*
X138523387Y-112360489D01*
X138626114Y-112419799D01*
X138740691Y-112450500D01*
X138740694Y-112450500D01*
X138859306Y-112450500D01*
X138859309Y-112450500D01*
X138973886Y-112419799D01*
X139076613Y-112360489D01*
X139160489Y-112276613D01*
X139219799Y-112173886D01*
X139250500Y-112059309D01*
X139250500Y-111940691D01*
X139219799Y-111826114D01*
X139160489Y-111723387D01*
X139086818Y-111649716D01*
X139072113Y-111622785D01*
X139055523Y-111596970D01*
X139054631Y-111590767D01*
X139053334Y-111588392D01*
X139050500Y-111562035D01*
X139050500Y-111355122D01*
X139070185Y-111288083D01*
X139086818Y-111267442D01*
X139124453Y-111229806D01*
X139124457Y-111229803D01*
X139141896Y-111212364D01*
X139141897Y-111212364D01*
X139212364Y-111141897D01*
X139247072Y-111058104D01*
X139250501Y-111049827D01*
X139250501Y-110950172D01*
X139250500Y-110950169D01*
X139250500Y-107814822D01*
X139799499Y-107814822D01*
X139808231Y-107858717D01*
X139808232Y-107858721D01*
X139808233Y-107858722D01*
X139841496Y-107908504D01*
X139891278Y-107941767D01*
X139891281Y-107941767D01*
X139891282Y-107941768D01*
X139935177Y-107950500D01*
X139935180Y-107950500D01*
X141664822Y-107950500D01*
X141708717Y-107941768D01*
X141708717Y-107941767D01*
X141708722Y-107941767D01*
X141758504Y-107908504D01*
X141791767Y-107858722D01*
X141800500Y-107814820D01*
X141800500Y-106085180D01*
X141800500Y-106085177D01*
X141791768Y-106041282D01*
X141791767Y-106041281D01*
X141791767Y-106041278D01*
X141758504Y-105991496D01*
X141753197Y-105987950D01*
X141708724Y-105958234D01*
X141708717Y-105958231D01*
X141664822Y-105949500D01*
X141664820Y-105949500D01*
X139935180Y-105949500D01*
X139935178Y-105949500D01*
X139891282Y-105958231D01*
X139891275Y-105958234D01*
X139841496Y-105991495D01*
X139841495Y-105991496D01*
X139808234Y-106041275D01*
X139808231Y-106041282D01*
X139799500Y-106085177D01*
X139799500Y-106085180D01*
X139799500Y-107814820D01*
X139799500Y-107814822D01*
X139799499Y-107814822D01*
X139250500Y-107814822D01*
X139250500Y-107640172D01*
X139212364Y-107548103D01*
X139188097Y-107523836D01*
X139154612Y-107462513D01*
X139159596Y-107392821D01*
X139161217Y-107388703D01*
X139222049Y-107241839D01*
X139222051Y-107241835D01*
X139242977Y-107136635D01*
X139260500Y-107048543D01*
X139260500Y-106851456D01*
X139222052Y-106658170D01*
X139222051Y-106658169D01*
X139222051Y-106658165D01*
X139173866Y-106541835D01*
X139146635Y-106476092D01*
X139146628Y-106476079D01*
X139037139Y-106312218D01*
X139037136Y-106312214D01*
X138897785Y-106172863D01*
X138897782Y-106172861D01*
X138733920Y-106063371D01*
X138733907Y-106063364D01*
X138551839Y-105987950D01*
X138551829Y-105987947D01*
X138358543Y-105949500D01*
X138358541Y-105949500D01*
X138161459Y-105949500D01*
X138161457Y-105949500D01*
X137968170Y-105987947D01*
X137968160Y-105987950D01*
X137821297Y-106048783D01*
X137751828Y-106056252D01*
X137689349Y-106024977D01*
X137686164Y-106021903D01*
X136686819Y-105022558D01*
X136653334Y-104961235D01*
X136650500Y-104934877D01*
X136650500Y-97654892D01*
X136670185Y-97587853D01*
X136712500Y-97547505D01*
X136713691Y-97546817D01*
X136776613Y-97510489D01*
X136860489Y-97426613D01*
X136919799Y-97323886D01*
X136950500Y-97209309D01*
X136950500Y-97090691D01*
X136919799Y-96976114D01*
X136860489Y-96873387D01*
X136776613Y-96789511D01*
X136673886Y-96730201D01*
X136559309Y-96699500D01*
X136440691Y-96699500D01*
X136326114Y-96730201D01*
X136326112Y-96730201D01*
X136326112Y-96730202D01*
X136223387Y-96789511D01*
X136223384Y-96789513D01*
X136139513Y-96873384D01*
X136139511Y-96873387D01*
X136080201Y-96976114D01*
X136049500Y-97090691D01*
X124200500Y-97090691D01*
X124200500Y-92085931D01*
X134349500Y-92085931D01*
X134349500Y-94114069D01*
X134359107Y-94162364D01*
X134374499Y-94239744D01*
X134423535Y-94358127D01*
X134494723Y-94464669D01*
X134494726Y-94464673D01*
X136285326Y-96255273D01*
X136285329Y-96255275D01*
X136285331Y-96255277D01*
X136391873Y-96326465D01*
X136510256Y-96375501D01*
X136510260Y-96375501D01*
X136510261Y-96375502D01*
X136635928Y-96400500D01*
X136635931Y-96400500D01*
X141164071Y-96400500D01*
X141248615Y-96383682D01*
X141289744Y-96375501D01*
X141408127Y-96326465D01*
X141514669Y-96255277D01*
X143005277Y-94764669D01*
X143076465Y-94658127D01*
X143125501Y-94539744D01*
X143133949Y-94497273D01*
X143150500Y-94414069D01*
X143150500Y-91685931D01*
X143150500Y-91685928D01*
X143125502Y-91560261D01*
X143125501Y-91560260D01*
X143125501Y-91560256D01*
X143076465Y-91441873D01*
X143076464Y-91441872D01*
X143076461Y-91441866D01*
X143005276Y-91335331D01*
X143005273Y-91335327D01*
X142914672Y-91244726D01*
X142914668Y-91244723D01*
X142808133Y-91173538D01*
X142808124Y-91173533D01*
X142689744Y-91124499D01*
X142689738Y-91124497D01*
X142564071Y-91099500D01*
X142564069Y-91099500D01*
X142435931Y-91099500D01*
X142435929Y-91099500D01*
X142310261Y-91124497D01*
X142310255Y-91124499D01*
X142191875Y-91173533D01*
X142191866Y-91173538D01*
X142085331Y-91244723D01*
X142085327Y-91244726D01*
X141994726Y-91335327D01*
X141994723Y-91335331D01*
X141923538Y-91441866D01*
X141923533Y-91441875D01*
X141874499Y-91560255D01*
X141874497Y-91560261D01*
X141849500Y-91685928D01*
X141849500Y-94029192D01*
X141829815Y-94096231D01*
X141813181Y-94116873D01*
X140966873Y-94963181D01*
X140905550Y-94996666D01*
X140879192Y-94999500D01*
X140175447Y-94999500D01*
X140108408Y-94979815D01*
X140062653Y-94927011D01*
X140052709Y-94857853D01*
X140068060Y-94813499D01*
X140119799Y-94723886D01*
X140150500Y-94609309D01*
X140150500Y-94490691D01*
X140119799Y-94376114D01*
X140060489Y-94273387D01*
X139986818Y-94199716D01*
X139953334Y-94138392D01*
X139950500Y-94112035D01*
X139950500Y-92242261D01*
X139950501Y-92242252D01*
X139950501Y-92128165D01*
X139950500Y-92128161D01*
X139912364Y-92036095D01*
X139912363Y-92036093D01*
X139834832Y-91958562D01*
X139834825Y-91958556D01*
X138588451Y-90712181D01*
X138554966Y-90650858D01*
X138559950Y-90581166D01*
X138601822Y-90525233D01*
X138667286Y-90500816D01*
X138676132Y-90500500D01*
X138759306Y-90500500D01*
X138759309Y-90500500D01*
X138873886Y-90469799D01*
X138976613Y-90410489D01*
X139060489Y-90326613D01*
X139119799Y-90223886D01*
X139150500Y-90109309D01*
X139150500Y-90105121D01*
X139151499Y-90101717D01*
X139151561Y-90101249D01*
X139151634Y-90101258D01*
X139170185Y-90038082D01*
X139186814Y-90017445D01*
X144441895Y-84762364D01*
X144441897Y-84762364D01*
X144512364Y-84691897D01*
X144537217Y-84631897D01*
X144550501Y-84599827D01*
X144550501Y-84587173D01*
X144570186Y-84520134D01*
X144622990Y-84474379D01*
X144627049Y-84472612D01*
X144713907Y-84436635D01*
X144713907Y-84436634D01*
X144713914Y-84436632D01*
X144746555Y-84414822D01*
X145779499Y-84414822D01*
X145788231Y-84458717D01*
X145788234Y-84458724D01*
X145821495Y-84508503D01*
X145821496Y-84508504D01*
X145871278Y-84541767D01*
X145871281Y-84541767D01*
X145871282Y-84541768D01*
X145915177Y-84550500D01*
X145915180Y-84550500D01*
X147644822Y-84550500D01*
X147688717Y-84541768D01*
X147688717Y-84541767D01*
X147688722Y-84541767D01*
X147738504Y-84508504D01*
X147771767Y-84458722D01*
X147780500Y-84414820D01*
X147780500Y-82685180D01*
X147780500Y-82685177D01*
X147771768Y-82641282D01*
X147771767Y-82641281D01*
X147771767Y-82641278D01*
X147738504Y-82591496D01*
X147733197Y-82587950D01*
X147688724Y-82558234D01*
X147688717Y-82558231D01*
X147644822Y-82549500D01*
X147644820Y-82549500D01*
X145915180Y-82549500D01*
X145915178Y-82549500D01*
X145871282Y-82558231D01*
X145871275Y-82558234D01*
X145821496Y-82591495D01*
X145821495Y-82591496D01*
X145788234Y-82641275D01*
X145788231Y-82641282D01*
X145779500Y-82685177D01*
X145779500Y-82685180D01*
X145779500Y-84414820D01*
X145779500Y-84414822D01*
X145779499Y-84414822D01*
X144746555Y-84414822D01*
X144877782Y-84327139D01*
X145017139Y-84187782D01*
X145126632Y-84023914D01*
X145202051Y-83841835D01*
X145220009Y-83751555D01*
X145240500Y-83648543D01*
X145240500Y-83451456D01*
X145202052Y-83258170D01*
X145202051Y-83258169D01*
X145202051Y-83258165D01*
X145201908Y-83257820D01*
X145126635Y-83076092D01*
X145126628Y-83076079D01*
X145017139Y-82912218D01*
X145017136Y-82912214D01*
X144877785Y-82772863D01*
X144877782Y-82772861D01*
X144713920Y-82663371D01*
X144713907Y-82663364D01*
X144531839Y-82587950D01*
X144531829Y-82587947D01*
X144338543Y-82549500D01*
X144338541Y-82549500D01*
X144141459Y-82549500D01*
X144141457Y-82549500D01*
X143948170Y-82587947D01*
X143948160Y-82587950D01*
X143766092Y-82663364D01*
X143766079Y-82663371D01*
X143602218Y-82772860D01*
X143602214Y-82772863D01*
X143462863Y-82912214D01*
X143462860Y-82912218D01*
X143353371Y-83076079D01*
X143353364Y-83076092D01*
X143277950Y-83258160D01*
X143277947Y-83258170D01*
X143239500Y-83451456D01*
X143239500Y-83451459D01*
X143239500Y-83648541D01*
X143239500Y-83648543D01*
X143239499Y-83648543D01*
X143277947Y-83841829D01*
X143277950Y-83841839D01*
X143353364Y-84023907D01*
X143353371Y-84023920D01*
X143462860Y-84187781D01*
X143462863Y-84187785D01*
X143602214Y-84327136D01*
X143602218Y-84327139D01*
X143766079Y-84436628D01*
X143766083Y-84436630D01*
X143766086Y-84436632D01*
X143778318Y-84441698D01*
X143801830Y-84451438D01*
X143856233Y-84495279D01*
X143878298Y-84561574D01*
X143861019Y-84629273D01*
X143842058Y-84653680D01*
X138917924Y-89577813D01*
X138856601Y-89611298D01*
X138798151Y-89609907D01*
X138759310Y-89599500D01*
X138759309Y-89599500D01*
X138640691Y-89599500D01*
X138526114Y-89630201D01*
X138526112Y-89630201D01*
X138526112Y-89630202D01*
X138423387Y-89689511D01*
X138423384Y-89689513D01*
X138339513Y-89773384D01*
X138339511Y-89773387D01*
X138280201Y-89876114D01*
X138249500Y-89990691D01*
X138249500Y-89990693D01*
X138249500Y-90073868D01*
X138243261Y-90095113D01*
X138241682Y-90117202D01*
X138233609Y-90127985D01*
X138229815Y-90140907D01*
X138213081Y-90155406D01*
X138199810Y-90173135D01*
X138187189Y-90177842D01*
X138177011Y-90186662D01*
X138155093Y-90189813D01*
X138134346Y-90197552D01*
X138121185Y-90194689D01*
X138107853Y-90196606D01*
X138087709Y-90187406D01*
X138066073Y-90182700D01*
X138048347Y-90169431D01*
X138044297Y-90167581D01*
X138037819Y-90161549D01*
X137984819Y-90108549D01*
X137951334Y-90047226D01*
X137948500Y-90020868D01*
X137948500Y-87707122D01*
X137968185Y-87640083D01*
X137984819Y-87619441D01*
X138358384Y-87245876D01*
X141126165Y-84478094D01*
X141187486Y-84444611D01*
X141257178Y-84449595D01*
X141261260Y-84451201D01*
X141408165Y-84512051D01*
X141408169Y-84512051D01*
X141408170Y-84512052D01*
X141601456Y-84550500D01*
X141601459Y-84550500D01*
X141798543Y-84550500D01*
X141962209Y-84517944D01*
X141991835Y-84512051D01*
X142173914Y-84436632D01*
X142337782Y-84327139D01*
X142477139Y-84187782D01*
X142586632Y-84023914D01*
X142662051Y-83841835D01*
X142680009Y-83751555D01*
X142700500Y-83648543D01*
X142700500Y-83451456D01*
X142662052Y-83258170D01*
X142662051Y-83258169D01*
X142662051Y-83258165D01*
X142661908Y-83257820D01*
X142586635Y-83076092D01*
X142586628Y-83076079D01*
X142477139Y-82912218D01*
X142477136Y-82912214D01*
X142337785Y-82772863D01*
X142337781Y-82772860D01*
X142173920Y-82663371D01*
X142173907Y-82663364D01*
X141991839Y-82587950D01*
X141991829Y-82587947D01*
X141798543Y-82549500D01*
X141798541Y-82549500D01*
X141601459Y-82549500D01*
X141601457Y-82549500D01*
X141408170Y-82587947D01*
X141408160Y-82587950D01*
X141226092Y-82663364D01*
X141226079Y-82663371D01*
X141062218Y-82772860D01*
X141062214Y-82772863D01*
X140922863Y-82912214D01*
X140922860Y-82912218D01*
X140813371Y-83076079D01*
X140813364Y-83076092D01*
X140737950Y-83258160D01*
X140737947Y-83258170D01*
X140699500Y-83451456D01*
X140699500Y-83451459D01*
X140699500Y-83648541D01*
X140699500Y-83648543D01*
X140699499Y-83648543D01*
X140737947Y-83841829D01*
X140737950Y-83841839D01*
X140798782Y-83988702D01*
X140806251Y-84058171D01*
X140774975Y-84120650D01*
X140771902Y-84123835D01*
X137562181Y-87333557D01*
X137500858Y-87367042D01*
X137431166Y-87362058D01*
X137375233Y-87320186D01*
X137350816Y-87254722D01*
X137350500Y-87245876D01*
X137350500Y-85765122D01*
X137370185Y-85698083D01*
X137386819Y-85677441D01*
X137666625Y-85397635D01*
X138586165Y-84478094D01*
X138647486Y-84444611D01*
X138717178Y-84449595D01*
X138721260Y-84451201D01*
X138868165Y-84512051D01*
X138868169Y-84512051D01*
X138868170Y-84512052D01*
X139061456Y-84550500D01*
X139061459Y-84550500D01*
X139258543Y-84550500D01*
X139422209Y-84517944D01*
X139451835Y-84512051D01*
X139633914Y-84436632D01*
X139797782Y-84327139D01*
X139937139Y-84187782D01*
X140046632Y-84023914D01*
X140122051Y-83841835D01*
X140140009Y-83751555D01*
X140160500Y-83648543D01*
X140160500Y-83451456D01*
X140122052Y-83258170D01*
X140122051Y-83258169D01*
X140122051Y-83258165D01*
X140121908Y-83257820D01*
X140046635Y-83076092D01*
X140046628Y-83076079D01*
X139937139Y-82912218D01*
X139937136Y-82912214D01*
X139797785Y-82772863D01*
X139797781Y-82772860D01*
X139633920Y-82663371D01*
X139633907Y-82663364D01*
X139451839Y-82587950D01*
X139451829Y-82587947D01*
X139258543Y-82549500D01*
X139258541Y-82549500D01*
X139061459Y-82549500D01*
X139061457Y-82549500D01*
X138868170Y-82587947D01*
X138868160Y-82587950D01*
X138686092Y-82663364D01*
X138686079Y-82663371D01*
X138522218Y-82772860D01*
X138522214Y-82772863D01*
X138382863Y-82912214D01*
X138382860Y-82912218D01*
X138273371Y-83076079D01*
X138273364Y-83076092D01*
X138197950Y-83258160D01*
X138197947Y-83258170D01*
X138159500Y-83451456D01*
X138159500Y-83451459D01*
X138159500Y-83648541D01*
X138159500Y-83648543D01*
X138159499Y-83648543D01*
X138197947Y-83841829D01*
X138197950Y-83841839D01*
X138258782Y-83988702D01*
X138266251Y-84058171D01*
X138234975Y-84120650D01*
X138231902Y-84123835D01*
X136940662Y-85415076D01*
X136940661Y-85415076D01*
X136940662Y-85415077D01*
X136887636Y-85468103D01*
X136849500Y-85560170D01*
X136849500Y-90899829D01*
X136887636Y-90991897D01*
X138013181Y-92117442D01*
X138046666Y-92178765D01*
X138049500Y-92205123D01*
X138049500Y-92309309D01*
X138080201Y-92423886D01*
X138139511Y-92526613D01*
X138223387Y-92610489D01*
X138326114Y-92669799D01*
X138440691Y-92700500D01*
X138440694Y-92700500D01*
X138559306Y-92700500D01*
X138559309Y-92700500D01*
X138673886Y-92669799D01*
X138776613Y-92610489D01*
X138860489Y-92526613D01*
X138919799Y-92423886D01*
X138950500Y-92309309D01*
X138950500Y-92190691D01*
X138920957Y-92080435D01*
X138922620Y-92010589D01*
X138961782Y-91952726D01*
X139026010Y-91925222D01*
X139094913Y-91936808D01*
X139128413Y-91960664D01*
X139413181Y-92245432D01*
X139446666Y-92306755D01*
X139449500Y-92333113D01*
X139449500Y-94112035D01*
X139429815Y-94179074D01*
X139413182Y-94199716D01*
X139339511Y-94273387D01*
X139280201Y-94376114D01*
X139249500Y-94490691D01*
X139249500Y-94609309D01*
X139280201Y-94723886D01*
X139303747Y-94764669D01*
X139331940Y-94813499D01*
X139348413Y-94881399D01*
X139325561Y-94947426D01*
X139270640Y-94990617D01*
X139224553Y-94999500D01*
X138181249Y-94999500D01*
X138114210Y-94979815D01*
X138078146Y-94944390D01*
X138076466Y-94941876D01*
X138076465Y-94941873D01*
X138005277Y-94835331D01*
X138005275Y-94835329D01*
X138005273Y-94835326D01*
X136486819Y-93316872D01*
X136453334Y-93255549D01*
X136450500Y-93229191D01*
X136450500Y-92085928D01*
X136425502Y-91960261D01*
X136425501Y-91960260D01*
X136425501Y-91960256D01*
X136414939Y-91934756D01*
X136405500Y-91887304D01*
X136405500Y-91649997D01*
X136405499Y-91649995D01*
X136400348Y-91604271D01*
X136360666Y-91521873D01*
X136289163Y-91464851D01*
X136200004Y-91444500D01*
X136200000Y-91444500D01*
X134600000Y-91444500D01*
X134599995Y-91444500D01*
X134554271Y-91449651D01*
X134471873Y-91489333D01*
X134414851Y-91560836D01*
X134394500Y-91649995D01*
X134394500Y-91887304D01*
X134393081Y-91894435D01*
X134391246Y-91915525D01*
X134388939Y-91925393D01*
X134374499Y-91960256D01*
X134349500Y-92085931D01*
X124200500Y-92085931D01*
X124200500Y-82443713D01*
X125349500Y-82443713D01*
X125349500Y-82656286D01*
X125374834Y-82816243D01*
X125382754Y-82866243D01*
X125397692Y-82912218D01*
X125448444Y-83068414D01*
X125544951Y-83257820D01*
X125669890Y-83429786D01*
X125820213Y-83580109D01*
X125992179Y-83705048D01*
X125992181Y-83705049D01*
X125992184Y-83705051D01*
X126181588Y-83801557D01*
X126383757Y-83867246D01*
X126593713Y-83900500D01*
X126593714Y-83900500D01*
X126806286Y-83900500D01*
X126806287Y-83900500D01*
X127016243Y-83867246D01*
X127218412Y-83801557D01*
X127407816Y-83705051D01*
X127485596Y-83648541D01*
X127579786Y-83580109D01*
X127579788Y-83580106D01*
X127579792Y-83580104D01*
X127730104Y-83429792D01*
X127730106Y-83429788D01*
X127730109Y-83429786D01*
X127855048Y-83257820D01*
X127855047Y-83257820D01*
X127855051Y-83257816D01*
X127951557Y-83068412D01*
X128017246Y-82866243D01*
X128050500Y-82656287D01*
X128050500Y-82443713D01*
X128042581Y-82393713D01*
X152649500Y-82393713D01*
X152649500Y-82606286D01*
X152661995Y-82685180D01*
X152682754Y-82816243D01*
X152713938Y-82912218D01*
X152748444Y-83018414D01*
X152844951Y-83207820D01*
X152969890Y-83379786D01*
X153120213Y-83530109D01*
X153292179Y-83655048D01*
X153292181Y-83655049D01*
X153292184Y-83655051D01*
X153481588Y-83751557D01*
X153683757Y-83817246D01*
X153893713Y-83850500D01*
X153893714Y-83850500D01*
X154106286Y-83850500D01*
X154106287Y-83850500D01*
X154316243Y-83817246D01*
X154518412Y-83751557D01*
X154707816Y-83655051D01*
X154810966Y-83580109D01*
X154879786Y-83530109D01*
X154879788Y-83530106D01*
X154879792Y-83530104D01*
X155030104Y-83379792D01*
X155030106Y-83379788D01*
X155030109Y-83379786D01*
X155155048Y-83207820D01*
X155155047Y-83207820D01*
X155155051Y-83207816D01*
X155251557Y-83018412D01*
X155317246Y-82816243D01*
X155350500Y-82606287D01*
X155350500Y-82393713D01*
X155317246Y-82183757D01*
X155251557Y-81981588D01*
X155155051Y-81792184D01*
X155155049Y-81792181D01*
X155155048Y-81792179D01*
X155030109Y-81620213D01*
X154879786Y-81469890D01*
X154707820Y-81344951D01*
X154518414Y-81248444D01*
X154518413Y-81248443D01*
X154518412Y-81248443D01*
X154316243Y-81182754D01*
X154316241Y-81182753D01*
X154316240Y-81182753D01*
X154154957Y-81157208D01*
X154106287Y-81149500D01*
X153893713Y-81149500D01*
X153845042Y-81157208D01*
X153683760Y-81182753D01*
X153481585Y-81248444D01*
X153292179Y-81344951D01*
X153120213Y-81469890D01*
X152969890Y-81620213D01*
X152844951Y-81792179D01*
X152748444Y-81981585D01*
X152682753Y-82183760D01*
X152649500Y-82393713D01*
X128042581Y-82393713D01*
X128017246Y-82233757D01*
X127951557Y-82031588D01*
X127855051Y-81842184D01*
X127855049Y-81842181D01*
X127855048Y-81842179D01*
X127730109Y-81670213D01*
X127579786Y-81519890D01*
X127407820Y-81394951D01*
X127218414Y-81298444D01*
X127218413Y-81298443D01*
X127218412Y-81298443D01*
X127016243Y-81232754D01*
X127016241Y-81232753D01*
X127016240Y-81232753D01*
X126854957Y-81207208D01*
X126806287Y-81199500D01*
X126593713Y-81199500D01*
X126545042Y-81207208D01*
X126383760Y-81232753D01*
X126181585Y-81298444D01*
X125992179Y-81394951D01*
X125820213Y-81519890D01*
X125669890Y-81670213D01*
X125544951Y-81842179D01*
X125448444Y-82031585D01*
X125382753Y-82233760D01*
X125349500Y-82443713D01*
X124200500Y-82443713D01*
X124200500Y-80174500D01*
X124220185Y-80107461D01*
X124272989Y-80061706D01*
X124324500Y-80050500D01*
X156575500Y-80050500D01*
X156642539Y-80070185D01*
G37*
%TD.AperFunction*%
%TD*%
M02*
