%TF.GenerationSoftware,KiCad,Pcbnew,9.0.3*%
%TF.CreationDate,2025-08-03T17:59:23+05:30*%
%TF.ProjectId,BatteryCharger_FuelGauge_Breakout_Board,42617474-6572-4794-9368-61726765725f,rev?*%
%TF.SameCoordinates,Original*%
%TF.FileFunction,Soldermask,Top*%
%TF.FilePolarity,Negative*%
%FSLAX46Y46*%
G04 Gerber Fmt 4.6, Leading zero omitted, Abs format (unit mm)*
G04 Created by KiCad (PCBNEW 9.0.3) date 2025-08-03 17:59:23*
%MOMM*%
%LPD*%
G01*
G04 APERTURE LIST*
G04 Aperture macros list*
%AMRoundRect*
0 Rectangle with rounded corners*
0 $1 Rounding radius*
0 $2 $3 $4 $5 $6 $7 $8 $9 X,Y pos of 4 corners*
0 Add a 4 corners polygon primitive as box body*
4,1,4,$2,$3,$4,$5,$6,$7,$8,$9,$2,$3,0*
0 Add four circle primitives for the rounded corners*
1,1,$1+$1,$2,$3*
1,1,$1+$1,$4,$5*
1,1,$1+$1,$6,$7*
1,1,$1+$1,$8,$9*
0 Add four rect primitives between the rounded corners*
20,1,$1+$1,$2,$3,$4,$5,0*
20,1,$1+$1,$4,$5,$6,$7,0*
20,1,$1+$1,$6,$7,$8,$9,0*
20,1,$1+$1,$8,$9,$2,$3,0*%
G04 Aperture macros list end*
%ADD10RoundRect,0.237500X0.237500X-0.250000X0.237500X0.250000X-0.237500X0.250000X-0.237500X-0.250000X0*%
%ADD11R,1.700000X1.700000*%
%ADD12C,1.700000*%
%ADD13RoundRect,0.237500X0.250000X0.237500X-0.250000X0.237500X-0.250000X-0.237500X0.250000X-0.237500X0*%
%ADD14R,1.500000X1.000000*%
%ADD15C,2.200000*%
%ADD16RoundRect,0.237500X0.300000X0.237500X-0.300000X0.237500X-0.300000X-0.237500X0.300000X-0.237500X0*%
%ADD17RoundRect,0.237500X0.237500X-0.300000X0.237500X0.300000X-0.237500X0.300000X-0.237500X-0.300000X0*%
%ADD18RoundRect,0.237500X-0.250000X-0.237500X0.250000X-0.237500X0.250000X0.237500X-0.250000X0.237500X0*%
%ADD19C,0.650000*%
%ADD20RoundRect,0.150000X-0.150000X-0.425000X0.150000X-0.425000X0.150000X0.425000X-0.150000X0.425000X0*%
%ADD21RoundRect,0.075000X-0.075000X-0.500000X0.075000X-0.500000X0.075000X0.500000X-0.075000X0.500000X0*%
%ADD22O,1.000000X2.100000*%
%ADD23O,1.000000X1.800000*%
%ADD24C,1.000000*%
%ADD25RoundRect,0.250000X-1.500000X-0.900000X1.500000X-0.900000X1.500000X0.900000X-1.500000X0.900000X0*%
%ADD26C,0.345000*%
%ADD27RoundRect,0.237500X-0.300000X-0.237500X0.300000X-0.237500X0.300000X0.237500X-0.300000X0.237500X0*%
%ADD28RoundRect,0.050000X0.050000X-0.200000X0.050000X0.200000X-0.050000X0.200000X-0.050000X-0.200000X0*%
%ADD29C,0.300000*%
%ADD30R,1.500000X0.900000*%
G04 APERTURE END LIST*
%TO.C,JP2*%
G36*
X147550000Y-87650000D02*
G01*
X146050000Y-87650000D01*
X146050000Y-89250000D01*
X147550000Y-89250000D01*
X147550000Y-87650000D01*
G37*
%TO.C,JP1*%
G36*
X133157500Y-97950000D02*
G01*
X134657500Y-97950000D01*
X134657500Y-96350000D01*
X133157500Y-96350000D01*
X133157500Y-97950000D01*
G37*
%TD*%
D10*
%TO.C,R13*%
X146000000Y-129000000D03*
X146000000Y-127175000D03*
%TD*%
D11*
%TO.C,J1*%
X146780000Y-83550000D03*
D12*
X144240000Y-83550000D03*
X141700000Y-83550000D03*
X139160000Y-83550000D03*
X136620000Y-83550000D03*
%TD*%
D13*
%TO.C,R1*%
X141525000Y-89550000D03*
X139700000Y-89550000D03*
%TD*%
D14*
%TO.C,JP2*%
X146800000Y-87150000D03*
X146800000Y-88450000D03*
X146800000Y-89750000D03*
%TD*%
D15*
%TO.C,H4*%
X154000000Y-132000000D03*
%TD*%
D13*
%TO.C,R4*%
X135700000Y-93550000D03*
X133875000Y-93550000D03*
%TD*%
D16*
%TO.C,C3*%
X136112500Y-118750000D03*
X134387500Y-118750000D03*
%TD*%
D10*
%TO.C,R14*%
X149000000Y-129000000D03*
X149000000Y-127175000D03*
%TD*%
D17*
%TO.C,C1*%
X142700000Y-97512500D03*
X142700000Y-95787500D03*
%TD*%
D18*
%TO.C,R5*%
X134175000Y-101050000D03*
X136000000Y-101050000D03*
%TD*%
D19*
%TO.C,J3*%
X136360000Y-128645000D03*
X142140000Y-128645000D03*
D20*
X136050000Y-127570000D03*
X136850000Y-127570000D03*
D21*
X138000000Y-127570000D03*
X139000000Y-127570000D03*
X139500000Y-127570000D03*
X140500000Y-127570000D03*
D20*
X141650000Y-127570000D03*
X142450000Y-127570000D03*
X142450000Y-127570000D03*
X141650000Y-127570000D03*
D21*
X141000000Y-127570000D03*
X140000000Y-127570000D03*
X138500000Y-127570000D03*
X137500000Y-127570000D03*
D20*
X136850000Y-127570000D03*
X136050000Y-127570000D03*
D22*
X134930000Y-128145000D03*
D23*
X134930000Y-132325000D03*
D22*
X143570000Y-128145000D03*
D23*
X143570000Y-132325000D03*
%TD*%
D18*
%TO.C,R11*%
X149925000Y-115500000D03*
X151750000Y-115500000D03*
%TD*%
D24*
%TO.C,FID1*%
X150500000Y-85750000D03*
%TD*%
D15*
%TO.C,H3*%
X127000000Y-132000000D03*
%TD*%
D18*
%TO.C,R6*%
X143175000Y-116500000D03*
X145000000Y-116500000D03*
%TD*%
D14*
%TO.C,JP1*%
X133907500Y-98450000D03*
X133907500Y-97150000D03*
X133907500Y-95850000D03*
%TD*%
D15*
%TO.C,H1*%
X126700000Y-82550000D03*
%TD*%
D25*
%TO.C,D1*%
X136550000Y-122500000D03*
X141950000Y-122500000D03*
%TD*%
D18*
%TO.C,R10*%
X149925000Y-113500000D03*
X151750000Y-113500000D03*
%TD*%
D11*
%TO.C,J4*%
X153750000Y-108790000D03*
D12*
X153750000Y-106250000D03*
X153750000Y-103710000D03*
%TD*%
D26*
%TO.C,U1*%
X138700000Y-97050000D03*
X139200000Y-97050000D03*
X139700000Y-97050000D03*
X138700000Y-97550000D03*
X139200000Y-97550000D03*
X139700000Y-97550000D03*
X138700000Y-98050000D03*
X139200000Y-98050000D03*
X139700000Y-98050000D03*
%TD*%
D18*
%TO.C,R7*%
X143175000Y-118250000D03*
X145000000Y-118250000D03*
%TD*%
D24*
%TO.C,FID3*%
X148500000Y-133250000D03*
%TD*%
D27*
%TO.C,C4*%
X138525000Y-117000000D03*
X140250000Y-117000000D03*
%TD*%
D13*
%TO.C,R8*%
X145000000Y-110250000D03*
X143175000Y-110250000D03*
%TD*%
D18*
%TO.C,R9*%
X143175000Y-112250000D03*
X145000000Y-112250000D03*
%TD*%
D11*
%TO.C,J2*%
X140800000Y-106950000D03*
D12*
X138260000Y-106950000D03*
X135720000Y-106950000D03*
%TD*%
D28*
%TO.C,U2*%
X138450000Y-114950000D03*
X138850000Y-114950000D03*
X139250000Y-114950000D03*
X139650000Y-114950000D03*
X140050000Y-114950000D03*
X140050000Y-113050000D03*
X139650000Y-113050000D03*
X139250000Y-113050000D03*
X138850000Y-113050000D03*
X138450000Y-113050000D03*
D29*
X138750000Y-114000000D03*
D30*
X139250000Y-114000000D03*
D29*
X139750000Y-114000000D03*
%TD*%
D13*
%TO.C,R2*%
X141525000Y-93550000D03*
X139700000Y-93550000D03*
%TD*%
D24*
%TO.C,FID2*%
X126200000Y-88550000D03*
%TD*%
D16*
%TO.C,C5*%
X137862500Y-110750000D03*
X136137500Y-110750000D03*
%TD*%
%TO.C,C2*%
X139912500Y-101050000D03*
X138187500Y-101050000D03*
%TD*%
D15*
%TO.C,H2*%
X154000000Y-82500000D03*
%TD*%
D13*
%TO.C,R3*%
X141525000Y-91550000D03*
X139700000Y-91550000D03*
%TD*%
M02*
